<svg width="249" height="99" viewBox="0 0 249 99" fill="none" xmlns="http://www.w3.org/2000/svg">
<g clip-path="url(#clip0)">
<path d="M47.88 96.53C74.3234 96.53 95.76 75.0934 95.76 48.65C95.76 22.2066 74.3234 0.77002 47.88 0.77002C21.4366 0.77002 0 22.2066 0 48.65C0 75.0934 21.4366 96.53 47.88 96.53Z" fill="#EE4036"/>
<path d="M63.66 26.8999L94.4 60.0599C90.37 76.5599 78.2 88.3099 64.57 93.5399L49.71 80.5299L49.67 74.9399L59.91 65.7799L46.34 50.9999L46.89 38.8499L63.52 38.8099L63.66 26.8999Z" fill="#C53733"/>
<path d="M59.2599 35.5998C58.4999 35.5398 57.5299 35.5198 56.3499 35.5198C54.7599 35.5198 53.2499 35.7098 51.7999 36.0998C50.3599 36.4898 49.0799 37.0798 47.9799 37.8698C46.8699 38.6698 45.9899 39.6598 45.3499 40.8598C44.6999 42.0598 44.3799 43.4598 44.3799 45.0498C44.3799 46.6798 44.6599 48.0598 45.2099 49.2098C45.7599 50.3598 46.5499 51.2998 47.5699 52.0398C48.5899 52.7798 49.8199 53.3098 51.2799 53.6498C52.7399 53.9798 54.3699 54.1498 56.1899 54.1498C58.1099 54.1498 59.9999 53.9898 61.8399 53.6798C63.6899 53.3698 65.2599 53.0598 66.5499 52.7698V34.9698C66.5499 31.2698 65.5799 28.5898 63.6699 26.8998C61.1699 24.6998 56.0899 24.0998 52.5999 23.8798C52.2699 23.8598 50.2299 23.7898 48.4099 23.7998C46.3299 23.8198 44.9199 23.8698 44.0599 23.9198C39.2999 24.2298 36.4599 24.7798 33.6599 26.6298C30.3499 28.8198 30.0999 36.5098 30.0599 37.6598C30.0299 38.4698 29.2899 51.3598 33.6499 59.9298C37.8799 68.2298 47.4699 77.5998 48.0799 78.2598C48.6999 78.9198 49.7199 80.5398 49.7199 80.5398C49.7199 80.5398 50.7199 78.9398 51.4099 78.2598C54.9899 74.7198 63.9199 64.5398 66.0099 59.5398C63.2399 60.0698 61.5799 60.2998 59.8699 60.5298C59.0699 62.6398 52.3399 70.9898 49.7299 74.1098C46.4899 70.1698 41.2299 63.9598 38.2299 58.0598C34.3199 50.3798 34.9699 37.6298 34.9799 37.4198C35.0999 34.8298 35.1899 32.1398 37.3399 30.2198C39.0199 28.7098 44.7599 28.2198 48.2799 28.2198C53.9599 28.2198 58.1599 28.9298 59.5199 30.1998C60.5399 31.1498 61.1799 32.5698 61.1799 34.7498V35.7998C60.6499 35.7198 60.0099 35.6598 59.2599 35.5998ZM61.1699 49.1598C60.4699 49.3498 59.6599 49.4798 58.7599 49.5798C57.8499 49.6698 56.9799 49.7198 56.1299 49.7198C55.4599 49.7198 54.7599 49.6798 54.0199 49.6098C53.2799 49.5398 52.6099 49.3298 51.9999 48.9998C51.3899 48.6698 50.8799 48.1898 50.4799 47.5598C50.0699 46.9298 49.8699 46.0598 49.8699 44.9498C49.8699 43.2098 50.4699 41.9198 51.6699 41.0698C52.8699 40.2198 54.6199 39.7998 56.9099 39.7998C57.4999 39.7998 58.2199 39.8398 59.0699 39.9098C59.9199 39.9798 60.6199 40.0598 61.1799 40.1298V49.1598H61.1699Z" fill="white"/>
</g>
<path d="M115.466 44.6548V13.3588H126.17C127.802 13.3588 129.306 13.4868 130.682 13.7428C132.09 13.9668 133.306 14.3828 134.33 14.9908C135.386 15.5988 136.202 16.3988 136.778 17.3908C137.386 18.3828 137.69 19.6308 137.69 21.1348C137.69 21.8388 137.594 22.5428 137.402 23.2468C137.21 23.9508 136.938 24.6068 136.586 25.2148C136.234 25.8228 135.802 26.3668 135.29 26.8468C134.81 27.3268 134.25 27.6788 133.61 27.9028V28.0948C134.41 28.2868 135.146 28.5908 135.818 29.0068C136.49 29.3908 137.082 29.8868 137.594 30.4948C138.106 31.1028 138.506 31.8228 138.794 32.6548C139.082 33.4548 139.226 34.3828 139.226 35.4388C139.226 37.0388 138.906 38.4148 138.266 39.5668C137.658 40.7188 136.794 41.6788 135.674 42.4468C134.586 43.1828 133.306 43.7428 131.834 44.1268C130.362 44.4788 128.778 44.6548 127.082 44.6548H115.466ZM122.522 25.8868H125.834C127.562 25.8868 128.81 25.5508 129.578 24.8788C130.378 24.2068 130.778 23.3108 130.778 22.1908C130.778 20.9748 130.378 20.1108 129.578 19.5988C128.778 19.0868 127.546 18.8308 125.882 18.8308H122.522V25.8868ZM122.522 39.1828H126.506C130.378 39.1828 132.314 37.7748 132.314 34.9588C132.314 33.5828 131.834 32.6068 130.874 32.0308C129.914 31.4228 128.458 31.1188 126.506 31.1188H122.522V39.1828ZM151.105 45.2308C148.513 45.2308 146.625 44.3828 145.441 42.6868C144.289 40.9908 143.713 38.6388 143.713 35.6308V20.8468H150.769V34.7188C150.769 36.4468 151.009 37.6308 151.489 38.2708C151.969 38.9108 152.721 39.2308 153.745 39.2308C154.641 39.2308 155.393 39.0228 156.001 38.6068C156.609 38.1908 157.265 37.5188 157.969 36.5908V20.8468H165.025V44.6548H159.265L158.737 41.3428H158.593C157.569 42.5588 156.465 43.5188 155.281 44.2228C154.129 44.8948 152.737 45.2308 151.105 45.2308ZM177.714 45.2308C176.498 45.2308 175.474 45.0388 174.642 44.6548C173.81 44.2708 173.138 43.7428 172.626 43.0708C172.146 42.3668 171.794 41.5348 171.57 40.5748C171.346 39.5828 171.234 38.4788 171.234 37.2628V11.0068H178.29V37.5508C178.29 38.2868 178.418 38.7988 178.674 39.0868C178.962 39.3748 179.25 39.5188 179.538 39.5188C179.698 39.5188 179.826 39.5188 179.922 39.5188C180.05 39.5188 180.21 39.4868 180.402 39.4228L181.266 44.6548C180.882 44.8148 180.386 44.9428 179.778 45.0388C179.202 45.1668 178.514 45.2308 177.714 45.2308ZM184.968 44.6548V20.8468H192.024V44.6548H184.968ZM188.472 17.3428C187.288 17.3428 186.312 17.0068 185.544 16.3348C184.776 15.6308 184.392 14.7348 184.392 13.6468C184.392 12.5588 184.776 11.6788 185.544 11.0068C186.312 10.3348 187.288 9.99878 188.472 9.99878C189.688 9.99878 190.664 10.3348 191.4 11.0068C192.168 11.6788 192.552 12.5588 192.552 13.6468C192.552 14.7348 192.168 15.6308 191.4 16.3348C190.664 17.0068 189.688 17.3428 188.472 17.3428ZM198.234 44.6548V20.8468H203.994L204.474 23.8708H204.666C205.69 22.9108 206.81 22.0788 208.026 21.3748C209.242 20.6388 210.666 20.2708 212.298 20.2708C214.89 20.2708 216.762 21.1188 217.914 22.8148C219.098 24.5108 219.69 26.8628 219.69 29.8708V44.6548H212.634V30.7828C212.634 29.0548 212.394 27.8708 211.914 27.2308C211.466 26.5908 210.73 26.2708 209.706 26.2708C208.81 26.2708 208.042 26.4788 207.402 26.8948C206.762 27.2788 206.058 27.8388 205.29 28.5748V44.6548H198.234ZM231.703 45.2308C230.615 45.2308 229.623 45.0388 228.727 44.6548C227.863 44.3028 227.127 43.8068 226.519 43.1668C225.911 42.4948 225.431 41.7268 225.079 40.8628C224.759 39.9988 224.599 39.0548 224.599 38.0308C224.599 35.5348 225.655 33.5828 227.767 32.1748C229.879 30.7668 233.287 29.8228 237.991 29.3428C237.927 28.2868 237.607 27.4548 237.031 26.8468C236.487 26.2068 235.559 25.8868 234.247 25.8868C233.223 25.8868 232.199 26.0788 231.175 26.4628C230.183 26.8468 229.111 27.3748 227.959 28.0468L225.415 23.3908C226.951 22.4628 228.551 21.7108 230.215 21.1348C231.911 20.5588 233.703 20.2708 235.591 20.2708C238.663 20.2708 240.999 21.1508 242.599 22.9108C244.231 24.6388 245.047 27.3428 245.047 31.0228V44.6548H239.287L238.807 42.2068H238.615C237.591 43.1028 236.519 43.8388 235.399 44.4148C234.279 44.9588 233.047 45.2308 231.703 45.2308ZM234.103 39.7588C234.903 39.7588 235.591 39.5828 236.167 39.2308C236.743 38.8788 237.351 38.3828 237.991 37.7428V33.5668C235.495 33.9188 233.767 34.4308 232.807 35.1028C231.847 35.7748 231.367 36.5748 231.367 37.5028C231.367 38.2708 231.607 38.8468 232.087 39.2308C232.599 39.5828 233.271 39.7588 234.103 39.7588ZM115.466 86.6548V55.3588H126.746C128.41 55.3588 129.962 55.5188 131.402 55.8388C132.874 56.1588 134.154 56.7028 135.242 57.4708C136.33 58.2068 137.194 59.1988 137.834 60.4468C138.474 61.6948 138.794 63.2468 138.794 65.1028C138.794 67.4068 138.282 69.3108 137.258 70.8148C136.266 72.2868 134.922 73.3908 133.226 74.1268L140.33 86.6548H132.41L126.41 75.3748H122.522V86.6548H115.466ZM122.522 69.7588H126.17C128.026 69.7588 129.434 69.3748 130.394 68.6068C131.386 67.8068 131.882 66.6388 131.882 65.1028C131.882 63.5668 131.386 62.4948 130.394 61.8868C129.434 61.2788 128.026 60.9748 126.17 60.9748H122.522V69.7588ZM154.083 87.2308C152.579 87.2308 151.123 86.9588 149.715 86.4148C148.307 85.8388 147.059 85.0228 145.971 83.9668C144.915 82.9108 144.067 81.6148 143.427 80.0788C142.787 78.5108 142.467 76.7348 142.467 74.7508C142.467 72.7668 142.787 71.0068 143.427 69.4708C144.067 67.9028 144.915 66.5908 145.971 65.5348C147.059 64.4788 148.307 63.6788 149.715 63.1348C151.123 62.5588 152.579 62.2708 154.083 62.2708C155.587 62.2708 157.027 62.5588 158.403 63.1348C159.811 63.6788 161.043 64.4788 162.099 65.5348C163.187 66.5908 164.051 67.9028 164.691 69.4708C165.331 71.0068 165.651 72.7668 165.651 74.7508C165.651 76.7348 165.331 78.5108 164.691 80.0788C164.051 81.6148 163.187 82.9108 162.099 83.9668C161.043 85.0228 159.811 85.8388 158.403 86.4148C157.027 86.9588 155.587 87.2308 154.083 87.2308ZM154.083 81.5188C155.523 81.5188 156.611 80.9108 157.347 79.6948C158.083 78.4788 158.451 76.8308 158.451 74.7508C158.451 72.6708 158.083 71.0228 157.347 69.8068C156.611 68.5908 155.523 67.9828 154.083 67.9828C152.611 67.9828 151.507 68.5908 150.771 69.8068C150.067 71.0228 149.715 72.6708 149.715 74.7508C149.715 76.8308 150.067 78.4788 150.771 79.6948C151.507 80.9108 152.611 81.5188 154.083 81.5188ZM177.257 87.2308C175.689 87.2308 174.073 86.9268 172.409 86.3188C170.777 85.7108 169.353 84.9108 168.137 83.9188L171.305 79.5028C172.393 80.3348 173.433 80.9588 174.425 81.3748C175.417 81.7908 176.425 81.9988 177.449 81.9988C178.505 81.9988 179.273 81.8228 179.753 81.4708C180.233 81.1188 180.473 80.6228 180.473 79.9828C180.473 79.5988 180.329 79.2628 180.041 78.9748C179.785 78.6548 179.417 78.3668 178.937 78.1108C178.489 77.8548 177.977 77.6308 177.401 77.4388C176.825 77.2148 176.233 76.9748 175.625 76.7188C174.889 76.4308 174.153 76.0948 173.417 75.7108C172.681 75.3268 172.009 74.8628 171.401 74.3188C170.793 73.7428 170.297 73.0868 169.913 72.3508C169.529 71.5828 169.337 70.7028 169.337 69.7108C169.337 68.6228 169.545 67.6148 169.961 66.6868C170.409 65.7588 171.033 64.9748 171.833 64.3348C172.633 63.6948 173.593 63.1988 174.713 62.8468C175.833 62.4628 177.081 62.2708 178.457 62.2708C180.281 62.2708 181.881 62.5908 183.257 63.2308C184.633 63.8388 185.833 64.5268 186.857 65.2948L183.689 69.5188C182.825 68.8788 181.977 68.3828 181.145 68.0308C180.313 67.6788 179.481 67.5028 178.649 67.5028C176.857 67.5028 175.961 68.1268 175.961 69.3748C175.961 69.7588 176.089 70.0948 176.345 70.3828C176.601 70.6388 176.937 70.8788 177.353 71.1028C177.801 71.3268 178.297 71.5508 178.841 71.7748C179.417 71.9668 180.009 72.1748 180.617 72.3988C181.385 72.6868 182.137 73.0228 182.873 73.4068C183.641 73.7588 184.329 74.2068 184.937 74.7508C185.577 75.2948 186.089 75.9668 186.473 76.7668C186.857 77.5348 187.049 78.4628 187.049 79.5508C187.049 80.6388 186.841 81.6468 186.425 82.5748C186.009 83.5028 185.385 84.3188 184.553 85.0228C183.721 85.6948 182.697 86.2388 181.481 86.6548C180.265 87.0388 178.857 87.2308 177.257 87.2308ZM173.369 98.1268L172.841 95.2948C174.729 95.1988 176.025 94.9908 176.729 94.6708C177.433 94.3828 177.785 93.9668 177.785 93.4228C177.785 92.9748 177.545 92.6068 177.065 92.3188C176.585 92.0308 175.801 91.8388 174.713 91.7428L176.057 89.1508C178.617 89.3748 180.377 89.8068 181.337 90.4468C182.329 91.0868 182.825 91.9988 182.825 93.1828C182.825 94.8148 181.993 96.0148 180.329 96.7828C178.697 97.5828 176.377 98.0308 173.369 98.1268ZM191.531 86.6548V62.8468H198.587V86.6548H191.531ZM195.035 59.3428C193.851 59.3428 192.875 59.0068 192.107 58.3348C191.339 57.6308 190.955 56.7348 190.955 55.6468C190.955 54.5588 191.339 53.6788 192.107 53.0068C192.875 52.3348 193.851 51.9988 195.035 51.9988C196.251 51.9988 197.227 52.3348 197.963 53.0068C198.731 53.6788 199.115 54.5588 199.115 55.6468C199.115 56.7348 198.731 57.6308 197.963 58.3348C197.227 59.0068 196.251 59.3428 195.035 59.3428ZM215.452 87.2308C213.756 87.2308 212.172 86.9588 210.7 86.4148C209.228 85.8388 207.948 85.0228 206.86 83.9668C205.772 82.8788 204.924 81.5668 204.316 80.0308C203.708 78.4948 203.404 76.7348 203.404 74.7508C203.404 72.8308 203.724 71.1028 204.364 69.5668C205.004 67.9988 205.836 66.6868 206.86 65.6308C207.916 64.5428 209.116 63.7108 210.46 63.1348C211.804 62.5588 213.196 62.2708 214.636 62.2708C216.332 62.2708 217.804 62.5588 219.052 63.1348C220.332 63.7108 221.388 64.5108 222.22 65.5348C223.084 66.5588 223.724 67.7748 224.14 69.1828C224.556 70.5588 224.764 72.0628 224.764 73.6948C224.764 74.3348 224.732 74.9428 224.668 75.5188C224.604 76.0948 224.54 76.5268 224.476 76.8148H210.22C210.54 78.5428 211.244 79.8228 212.332 80.6548C213.452 81.4548 214.812 81.8548 216.412 81.8548C218.108 81.8548 219.82 81.3268 221.548 80.2708L223.9 84.5428C222.684 85.3748 221.324 86.0308 219.82 86.5108C218.348 86.9908 216.892 87.2308 215.452 87.2308ZM210.172 72.1588H218.764C218.764 70.8148 218.46 69.7268 217.852 68.8948C217.244 68.0628 216.22 67.6468 214.78 67.6468C213.66 67.6468 212.668 68.0148 211.804 68.7508C210.972 69.4868 210.428 70.6228 210.172 72.1588Z" fill="#EE4036"/>
<defs>
<clipPath id="clip0">
<rect width="95.77" height="95.77" fill="white" transform="translate(0 0.77002)"/>
</clipPath>
</defs>
</svg>
