<svg width="229" height="70" viewBox="0 0 229 70" fill="none" xmlns="http://www.w3.org/2000/svg">
<path d="M28.0377 1.4458L18.1085 2.92948L0 35.0378L18.1085 67.0701L28.0377 68.5918L8.71186 35.0378L28.0377 1.4458Z" fill="#0000FA"/>
<path d="M53.4131 1.4458L63.3423 2.92948L81.4508 35.0378L63.3423 67.0701L53.4131 68.5918L72.7009 35.0378L53.4131 1.4458Z" fill="#0000FA"/>
<path d="M28.0378 1.44564L40.7061 0V35.0377H8.71191L28.0378 1.44564Z" fill="#F2F2FE"/>
<path d="M28.0378 68.5926L40.7061 70.0001V35.0386H8.71191L28.0378 68.5926Z" fill="#D8D8FE"/>
<path d="M53.4115 68.5926L40.7051 70.0001V35.0386H72.6993L53.4115 68.5926Z" fill="#B2B2FC"/>
<path d="M53.4115 1.44564L40.7051 0V35.0377H72.6993L53.4115 1.44564Z" fill="#E5E5FE"/>
<path d="M114.357 29.5217C112.189 30.0543 109.944 30.3206 107.738 30.3206C106.14 30.3967 104.504 30.1685 102.982 29.6359C101.841 29.1794 100.852 28.3424 100.167 27.2772C99.4444 26.1359 98.9879 24.8424 98.7216 23.5109C98.4553 21.7229 98.3412 19.8969 98.3792 18.0708C98.3792 13.5056 99.0259 10.31 100.319 8.52198C101.613 6.73395 103.972 5.78288 107.395 5.78288C109.754 5.82092 112.075 6.16331 114.357 6.772L114.167 10.6143C112.265 10.31 110.363 10.1198 108.461 10.0817C106.901 10.0817 105.836 10.31 105.189 10.7285C104.542 11.1469 104.048 11.8698 103.743 13.0111C103.439 14.1523 103.211 16.0925 103.211 18.8316C103.211 21.5707 103.553 23.4729 104.2 24.5381C104.847 25.6414 106.14 26.0979 108.042 26.0979C110.096 26.0979 112.151 25.9457 114.167 25.6414L114.357 29.5217ZM118.466 14.4947C119.721 12.8969 121.776 12.098 124.629 12.098C127.482 12.098 129.536 12.8969 130.792 14.4947C132.047 16.0925 132.694 18.3371 132.694 21.1903C132.694 27.3152 129.993 30.3206 124.629 30.3206C119.265 30.3206 116.64 27.2772 116.64 21.1903C116.64 18.299 117.249 16.0925 118.466 14.4947ZM122.118 25.1087C122.575 25.9837 123.45 26.3642 124.629 26.3642C125.808 26.3642 126.759 25.9457 127.216 25.1087C127.786 23.8533 128.015 22.5218 127.977 21.1523C128.053 19.8208 127.786 18.4893 127.216 17.2719C126.759 16.473 125.884 16.0165 124.629 16.0165C123.64 15.9404 122.651 16.3969 122.118 17.2719C121.585 18.0708 121.357 19.4023 121.357 21.1523C121.357 22.9023 121.585 24.2338 122.118 25.1087ZM150.841 5.51658V29.9022H146.199V29.1413C144.906 29.8261 143.46 30.2446 141.977 30.2826C139.466 30.2826 137.678 29.5978 136.727 28.1142C135.737 26.6305 135.243 24.3479 135.243 21.1523C135.243 17.9567 135.814 15.7121 137.031 14.2284C138.248 12.7448 139.998 12.06 142.471 12.06C143.498 12.098 144.525 12.2122 145.553 12.4024L146.237 12.5926V5.51658H150.841ZM145.705 25.7174L146.237 25.6033V16.473C145.096 16.2447 143.955 16.1306 142.813 16.1306C140.911 16.1306 139.998 17.8045 139.998 21.1523C139.998 22.9403 140.189 24.2338 140.645 24.9946C141.025 25.7555 141.862 26.212 142.699 26.1359C143.727 26.1359 144.716 25.9837 145.705 25.7174ZM159.895 25.4892C160.542 26.0218 161.379 26.2881 162.253 26.25C164.422 26.25 166.324 26.1359 168.036 26.0218L169.025 25.9077V29.3315C166.666 29.9783 164.27 30.3206 161.835 30.3587C159.21 30.3587 157.27 29.5978 156.129 28.2283C154.987 26.8587 154.341 24.5761 154.341 21.4186C154.341 15.1795 156.851 12.06 161.987 12.06C167.123 12.06 169.596 14.685 169.596 19.9349L169.253 23.2066H159.02C158.944 24.0816 159.248 24.9185 159.895 25.4892ZM165.031 19.6305C165.031 18.261 164.802 17.2719 164.346 16.7012C163.927 16.1686 163.128 15.9023 162.063 15.9023C160.96 15.9023 160.161 16.2067 159.705 16.7773C159.248 17.348 159.02 18.3371 158.944 19.6305H165.031ZM186.106 16.473V29.9022H181.427V16.473H179.601V12.4785H181.427V11.7176C181.427 9.20675 181.846 7.49481 182.568 6.50569C183.329 5.51658 184.623 5.06006 186.563 5.06006C187.628 5.0981 188.693 5.21223 189.759 5.40245L190.519 5.51658V9.35892L187.933 9.24479C187.4 9.20675 186.867 9.39697 186.487 9.81544C186.221 10.4241 186.106 11.1089 186.145 11.7556V12.4404H190.367V16.4349L186.106 16.473ZM193.867 14.4947C195.085 12.8969 197.139 12.098 199.992 12.098C202.845 12.098 204.976 12.8969 206.155 14.4947C207.373 16.0925 208.057 18.3371 208.057 21.1903C208.057 27.3152 205.356 30.3206 199.992 30.3206C194.628 30.3206 192.003 27.2772 192.003 21.1903C192.003 18.299 192.612 16.0925 193.867 14.4947ZM197.481 25.1087C197.938 25.9837 198.813 26.3642 199.992 26.3642C201.21 26.3642 202.123 25.9457 202.579 25.1087C203.036 24.2338 203.34 22.9403 203.34 21.1523C203.34 19.3642 203.112 18.0708 202.579 17.2719C202.047 16.473 201.248 16.0545 199.992 16.0545C198.737 16.0545 197.938 16.473 197.481 17.2719C197.025 18.0708 196.72 19.4023 196.72 21.1523C196.72 22.9023 196.949 24.2338 197.481 25.1087ZM211.405 29.9022V12.4785H216.046V14.3806C217.758 13.2774 219.66 12.5165 221.639 12.098V16.7773C220.003 17.1197 218.367 17.5382 216.769 18.0327L216.084 18.261V29.9022H211.405ZM104.124 56.8367V64.7877H99.3303V41.0868H108.537C114.129 41.0868 116.868 43.7118 116.868 48.9237C116.868 52.0052 115.727 54.2878 113.368 55.7334L116.754 64.8257H111.504L108.765 56.8747H104.124V56.8367ZM111.162 51.6628C111.732 50.8639 112.037 49.8748 111.961 48.8476C111.999 47.8965 111.694 46.9074 111.086 46.1466C110.439 45.4237 109.488 45.0433 108.499 45.1194H104.086V52.6519H108.537C109.526 52.766 110.477 52.3856 111.162 51.6628ZM121.129 49.2661C122.384 47.7063 124.439 46.9074 127.292 46.9074C130.145 46.9074 132.276 47.7063 133.455 49.2661C134.672 50.8259 135.281 53.1084 135.281 55.9997C135.281 62.1246 132.656 65.13 127.292 65.13C121.928 65.13 119.303 62.0866 119.303 55.9997C119.303 53.1084 119.95 50.8639 121.129 49.2661ZM124.743 59.9562C125.314 60.7931 126.303 61.2877 127.33 61.2116C128.585 61.2116 129.46 60.7551 129.917 59.9562C130.488 58.7008 130.716 57.3693 130.678 55.9997C130.754 54.6302 130.488 53.2987 129.917 52.0432C129.46 51.2443 128.585 50.8259 127.33 50.8259C126.303 50.7117 125.352 51.2063 124.743 52.0432C124.287 52.9182 124.058 54.1736 124.058 55.9997C124.058 57.8258 124.287 59.1192 124.743 59.9562ZM143.422 64.7496H138.743V47.3259H143.384V48.315C144.602 47.5161 146.047 47.0596 147.493 46.9455C149.395 46.9455 150.803 47.4781 151.83 48.5433C153.656 47.5541 155.672 47.0215 157.726 46.9455C160.009 46.9455 161.607 47.5922 162.52 48.9617C163.433 50.3313 163.851 52.3856 163.851 55.353V64.7877H159.172V55.4671C159.248 54.3258 159.096 53.2226 158.715 52.1574C158.335 51.4345 157.574 51.0541 156.775 51.1302C155.862 51.1682 154.911 51.3204 154.036 51.5867L153.504 51.7769C153.618 53.565 153.694 54.8584 153.694 55.7715V64.7877H149.015V55.8095C149.053 54.5921 148.9 53.3367 148.558 52.1574C148.254 51.4726 147.569 51.1302 146.542 51.1302C145.629 51.1302 144.716 51.2824 143.841 51.5867L143.422 51.7389V64.7496ZM181.313 52.766V60.0323C181.313 60.4127 181.389 60.8312 181.617 61.1736C181.808 61.4779 182.112 61.6301 182.492 61.6301L182.378 65.1681C181.427 65.2061 180.476 65.13 179.525 64.9398C178.764 64.7496 178.041 64.4072 177.395 63.9507C175.797 64.7116 174.047 65.13 172.259 65.1681C168.645 65.1681 166.819 63.2659 166.819 59.4616C166.819 57.5975 167.351 56.266 168.378 55.5051C169.368 54.7062 170.889 54.2497 172.944 54.1356L176.672 53.8313V52.728C176.71 52.1954 176.558 51.6628 176.215 51.2443C175.759 50.94 175.188 50.7878 174.617 50.8259L168.112 51.1302L167.922 47.8585C170.243 47.2118 172.601 46.8694 174.998 46.8313C177.28 46.8313 178.878 47.3639 179.867 48.277C180.857 49.19 181.313 50.7117 181.313 52.766ZM173.476 57.4073C172.145 57.5214 171.536 58.2062 171.536 59.4616C171.536 60.717 172.107 61.4018 173.248 61.4018C174.199 61.3638 175.188 61.2116 176.101 60.9453L176.634 60.8312V57.103L173.476 57.4073ZM190.443 64.7496H185.764V47.3259H190.405V48.315C191.699 47.4781 193.221 47.0215 194.742 46.9455C197.101 46.9455 198.699 47.6302 199.536 48.9998C200.449 50.3693 200.905 52.4997 200.905 55.2769V64.7496H196.226V55.4291C196.302 54.2878 196.112 53.1845 195.693 52.1193C195.351 51.4345 194.59 51.0922 193.563 51.0922C192.612 51.0541 191.699 51.2063 190.824 51.5487L190.405 51.7389L190.443 64.7496ZM205.014 45.1194V40.364H209.693V45.1194H205.014ZM205.014 64.7496V47.3259H209.693V64.7496H205.014ZM227.383 52.766V60.0323C227.383 60.4127 227.459 60.8312 227.688 61.1736C227.878 61.4779 228.182 61.6301 228.563 61.6301L228.448 65.1681C227.497 65.2061 226.546 65.13 225.595 64.9398C224.834 64.7496 224.073 64.4072 223.427 63.9507C221.829 64.7116 220.117 65.13 218.329 65.1681C214.715 65.1681 212.889 63.2659 212.889 59.4616C212.889 57.5595 213.421 56.266 214.372 55.5051C215.362 54.7443 216.959 54.2497 219.014 54.1356L222.742 53.8313V52.728C222.78 52.1954 222.628 51.6628 222.285 51.2443C221.829 50.94 221.258 50.7878 220.688 50.8259L214.182 51.1302L213.992 47.8585C216.313 47.2118 218.671 46.8694 221.068 46.8313C223.351 46.8313 224.948 47.3639 225.938 48.277C226.851 49.228 227.383 50.7117 227.383 52.766ZM219.546 57.4073C218.215 57.5214 217.606 58.2062 217.606 59.4616C217.606 60.717 218.177 61.4018 219.28 61.4018C220.269 61.3638 221.258 61.2116 222.209 60.9453L222.742 60.8312V57.103L219.546 57.4073Z" fill="black"/>
</svg>
