<svg xmlns="http://www.w3.org/2000/svg" width="35" height="31" fill="none" viewBox="0 0 35 31"><path fill="#fff" d="M30.6825 0.280518H3.63487C1.77534 0.280518 0.253906 1.63156 0.253906 3.28284V27.3014C0.253906 28.9527 1.77534 30.3038 3.63487 30.3038H30.6825C32.5421 30.3038 34.0635 28.9527 34.0635 27.3014V3.28284C34.0635 1.63156 32.5421 0.280518 30.6825 0.280518ZM17.1587 9.28749C20.8778 9.28749 23.9206 11.9896 23.9206 15.2921C23.9206 18.5947 20.8778 21.2968 17.1587 21.2968C13.4397 21.2968 10.3968 18.5947 10.3968 15.2921C10.3968 11.9896 13.4397 9.28749 17.1587 9.28749ZM4.48011 27.3014C3.97296 27.3014 3.63487 27.0012 3.63487 26.5509V13.791H7.18488C7.01583 14.2413 7.01583 14.8418 7.01583 15.2921C7.01583 20.246 11.5801 24.2991 17.1587 24.2991C22.7373 24.2991 27.3016 20.246 27.3016 15.2921C27.3016 14.8418 27.3016 14.2413 27.1325 13.791H30.6825V26.5509C30.6825 27.0012 30.3445 27.3014 29.8373 27.3014H4.48011ZM30.6825 7.03575C30.6825 7.4861 30.3445 7.78633 29.8373 7.78633H26.4563C25.9492 7.78633 25.6111 7.4861 25.6111 7.03575V4.03342C25.6111 3.58308 25.9492 3.28284 26.4563 3.28284H29.8373C30.3445 3.28284 30.6825 3.58308 30.6825 4.03342V7.03575Z"/></svg>