<svg xmlns="http://www.w3.org/2000/svg" width="174" height="53" fill="none"><path fill="#000" d="M21.775 1.099l-7.45 1.098L.732 26.309 14.324 50.42l7.451 1.098L7.311 26.31l14.464-25.21zm19.095 0l7.45 1.098 13.592 24.112-13.591 24.1-7.45 1.098 14.464-25.21L40.87 1.098z"/><path fill="#F3F3F3" d="M21.775 1.098L31.323 0v26.308H7.31l14.464-25.21z"/><path fill="#D9D9D9" d="M21.775 51.506l9.548 1.099V26.309H7.31l14.464 25.197z"/><path fill="#BCBCBC" d="M40.87 51.506l-9.547 1.099V26.309h24.012L40.87 51.506z"/><path fill="#E9E9E9" d="M40.87 1.098L31.323 0v26.308h24.012L40.87 1.098z"/><path fill="#000" d="M172.462 39.613v5.466c.038.424.1.711.213.886.099.162.324.287.661.35l-.1 2.658c-.898 0-1.61-.063-2.146-.187-.537-.125-1.074-.375-1.623-.737-1.26.612-2.546.924-3.869.924-2.72 0-4.081-1.435-4.081-4.318 0-1.398.375-2.397 1.136-2.983.749-.587 1.909-.936 3.469-1.036l2.809-.212v-.811c0-.55-.125-.911-.362-1.124-.25-.2-.637-.3-1.186-.3l-4.942.213-.1-2.446c1.872-.512 3.657-.761 5.354-.761s2.908.349 3.657 1.048c.736.699 1.11 1.822 1.11 3.37zm-80.198-2.621c.923-1.198 2.483-1.797 4.655-1.797s3.732.599 4.655 1.797c.924 1.198 1.398 2.895 1.398 5.067 0 4.617-2.022 6.914-6.053 6.914-4.031 0-6.053-2.309-6.053-6.914.013-2.172.474-3.857 1.398-5.067zm45.428 2.62v5.467c.038.424.1.711.212.886.1.162.325.287.662.35l-.1 2.658c-.899 0-1.61-.063-2.147-.187-.536-.125-1.073-.375-1.622-.737-1.261.612-2.546.924-3.869.924-2.721 0-4.081-1.435-4.081-4.318 0-1.398.374-2.397 1.136-2.983.749-.587 1.909-.936 3.469-1.036l2.808-.212v-.811c0-.55-.125-.911-.374-1.124-.25-.2-.637-.3-1.186-.3l-4.942.213-.1-2.446c1.872-.512 3.657-.761 5.354-.761 1.698 0 2.908.349 3.657 1.048.749.699 1.123 1.822 1.123 3.37zm-28.617 9.049h-3.52V35.507h3.495v.736c1.21-.699 2.246-1.048 3.107-1.048 1.423 0 2.521.411 3.283 1.235 1.61-.824 3.082-1.235 4.418-1.235 1.735 0 2.945.499 3.619 1.51.674 1.01 1.011 2.62 1.011 4.83v7.126h-3.519v-7.027c0-1.123-.125-1.947-.362-2.483-.25-.537-.737-.799-1.473-.799-.562 0-1.248.125-2.047.362l-.399.137c.075 1.31.1 2.31.1 2.996v6.814h-3.52v-6.764c0-1.298-.112-2.21-.337-2.746-.224-.537-.724-.799-1.497-.799-.687 0-1.361.125-2.022.362l-.312.112v9.835h-.025zm35.506 0h-3.519V35.507h3.494v.736c1.199-.699 2.284-1.048 3.283-1.048 1.747 0 2.958.511 3.632 1.547.661 1.036.998 2.634.998 4.793v7.126h-3.52v-7.027c0-1.123-.137-1.947-.399-2.483-.262-.537-.786-.799-1.572-.799-.724 0-1.411.125-2.072.362l-.312.112v9.835h-.013zm11.021 0V35.507h3.519V48.66h-3.519zm-76.193-6.003v5.99h-3.632V30.777h6.94c4.205 0 6.314 1.959 6.314 5.89 0 2.334-.873 4.056-2.633 5.155l2.546 6.839h-3.969l-2.071-5.99h-3.495v-.013zm52.368.424c-.986.087-1.473.612-1.473 1.573 0 .96.424 1.447 1.285 1.447.662 0 1.398-.1 2.184-.312l.4-.1v-2.82l-2.396.212zm34.77 0c-.986.087-1.473.612-1.473 1.573 0 .96.424 1.447 1.286 1.447.661 0 1.397-.1 2.184-.312l.399-.1v-2.82l-2.396.212zm-71.55 1.947c.362.637.998.949 1.934.949.937 0 1.573-.312 1.935-.949.362-.636.537-1.622.537-2.97s-.175-2.334-.537-2.946c-.362-.611-.998-.923-1.934-.923-.924 0-1.573.312-1.935.923-.362.612-.537 1.598-.537 2.946s.175 2.346.537 2.97zm-10.309-6.253c.425-.524.637-1.223.637-2.071 0-.861-.225-1.548-.674-2.047-.45-.512-1.099-.761-1.935-.761h-3.32v5.678h3.37c.874-.012 1.51-.274 1.922-.799zm70.914-4.954v-3.57h3.519v3.57h-3.519zM87.109 22.065c-1.86.4-3.531.6-5.017.6-1.485 0-2.683-.188-3.582-.55a4.421 4.421 0 01-2.109-1.76c-.511-.81-.86-1.747-1.048-2.845-.187-1.086-.287-2.459-.287-4.106 0-3.457.487-5.866 1.46-7.226.974-1.36 2.77-2.034 5.38-2.034 1.51 0 3.256.237 5.228.71l-.1 2.896c-1.734-.25-3.182-.387-4.33-.387-1.148 0-1.972.15-2.459.462-.487.312-.848.886-1.098 1.747-.237.862-.35 2.322-.35 4.394 0 2.071.238 3.507.724 4.305.487.799 1.448 1.198 2.896 1.198s2.983-.124 4.618-.362l.074 2.958zm34.396-3.032c.412.361 1.011.536 1.772.536 1.635 0 3.083-.05 4.369-.162l.736-.075.05 2.608c-2.022.487-3.844.737-5.467.737-1.984 0-3.419-.524-4.318-1.573-.898-1.048-1.335-2.758-1.335-5.13 0-4.717 1.934-7.075 5.816-7.075 3.819 0 5.728 1.984 5.728 5.94l-.262 2.446h-7.738c.025.8.237 1.386.649 1.748zm-31.263-8.337c.923-1.198 2.484-1.797 4.655-1.797 2.172 0 3.732.599 4.655 1.797.924 1.198 1.398 2.883 1.398 5.067 0 4.617-2.022 6.914-6.053 6.914-4.031 0-6.053-2.309-6.053-6.914 0-2.184.475-3.87 1.398-5.067zm24.461-6.752v18.408h-3.494v-.549c-1.223.574-2.284.861-3.183.861-1.909 0-3.244-.549-3.993-1.66-.749-1.11-1.136-2.858-1.136-5.241 0-2.396.449-4.144 1.36-5.23.899-1.098 2.272-1.647 4.094-1.647.562 0 1.335.087 2.346.262l.499.1V3.944h3.507zm32.462 6.752c.923-1.198 2.483-1.797 4.655-1.797s3.732.599 4.655 1.797c.924 1.198 1.398 2.883 1.398 5.067 0 4.617-2.009 6.914-6.053 6.914-4.031 0-6.053-2.309-6.053-6.914 0-2.184.462-3.87 1.398-5.067zm13.279 11.656V9.211h3.494v1.397c1.473-.873 2.871-1.447 4.206-1.71v3.557c-1.423.3-2.646.6-3.656.924l-.525.187v8.811h-3.519v-.025zm-19.12-10.146v10.146h-3.519V12.206h-1.423V9.21h1.423v-.587c0-1.897.274-3.195.836-3.919.561-.724 1.56-1.073 2.995-1.073.637 0 1.448.087 2.446.262l.549.075-.05 2.87a40.327 40.327 0 00-1.947-.05c-.524 0-.873.138-1.048.425-.175.287-.262.761-.262 1.447v.55h3.182v2.995h-3.182zm8.562 6.527c.361.636.998.948 1.934.948.936 0 1.572-.312 1.934-.948.362-.637.537-1.622.537-2.97s-.175-2.334-.537-2.946c-.362-.611-.998-.923-1.934-.923-.936 0-1.573.312-1.934.923-.362.612-.537 1.598-.537 2.946s.175 2.333.537 2.97zm-56.923 0c.362.636.998.948 1.934.948.936 0 1.573-.312 1.935-.948.362-.637.536-1.622.536-2.97s-.174-2.334-.536-2.946c-.362-.611-.999-.923-1.935-.923-.923 0-1.572.312-1.934.923-.362.612-.537 1.598-.537 2.946s.175 2.333.537 2.97zm17.847.462l.374-.075v-6.914c-.961-.175-1.822-.262-2.583-.262-1.423 0-2.135 1.26-2.135 3.781 0 1.373.163 2.347.475 2.92.312.575.836.874 1.56.874.724 0 1.51-.112 2.309-.324zm14.577-4.593c0-1.048-.163-1.785-.5-2.197-.337-.411-.911-.611-1.747-.611-.836 0-1.423.212-1.76.649-.337.424-.524 1.148-.536 2.171h4.543v-.012z"/></svg>