<svg width="172" height="51" viewBox="0 0 172 51" fill="none" xmlns="http://www.w3.org/2000/svg">
<path d="M21.0664 1.03345L13.606 2.09405L0 25.0467L13.606 47.9449L21.0664 49.0327L6.54573 25.0467L21.0664 1.03345Z" fill="#BBBBBB"/>
<path d="M40.1318 1.03345L47.5923 2.09405L61.1982 25.0467L47.5923 47.9449L40.1318 49.0327L54.6239 25.0467L40.1318 1.03345Z" fill="#BBBBBB"/>
<path d="M21.0663 1.03341L30.5848 0V25.0466H6.54565L21.0663 1.03341Z" fill="#F7F7F7"/>
<path d="M21.0663 49.0326L30.5848 50.0388V25.0466H6.54565L21.0663 49.0326Z" fill="#EDEDED"/>
<path d="M40.132 49.0326L30.585 50.0388V25.0466H54.6241L40.132 49.0326Z" fill="#D9D9D9"/>
<path d="M40.132 1.03341L30.585 0V25.0466H54.6241L40.132 1.03341Z" fill="#F2F2F2"/>
<path d="M85.9234 21.1035C84.2941 21.4842 82.6076 21.6746 80.9497 21.6746C79.7492 21.729 78.5201 21.5658 77.3767 21.1851C76.5192 20.8587 75.776 20.2604 75.2615 19.499C74.7184 18.6831 74.3754 17.7585 74.1753 16.8067C73.9752 15.5285 73.8895 14.2232 73.9181 12.9178C73.9181 9.65445 74.404 7.37008 75.3759 6.09192C76.3477 4.81376 78.1199 4.13389 80.6925 4.13389C82.4647 4.16108 84.2083 4.40584 85.9234 4.84096L85.7804 7.58764C84.3512 7.37008 82.922 7.2341 81.4928 7.20691C80.3209 7.20691 79.5205 7.37008 79.0346 7.66922C78.5487 7.96836 78.1771 8.48507 77.9484 9.30091C77.7198 10.1168 77.5482 11.5037 77.5482 13.4617C77.5482 15.4198 77.8055 16.7795 78.2914 17.541C78.7774 18.3296 79.7492 18.6559 81.1784 18.6559C82.722 18.6559 84.2655 18.5472 85.7804 18.3296L85.9234 21.1035ZM89.0104 10.3615C89.9537 9.21933 91.4972 8.64824 93.641 8.64824C95.7848 8.64824 97.3284 9.21933 98.2717 10.3615C99.2149 11.5037 99.7009 13.1082 99.7009 15.1478C99.7009 19.5262 97.6714 21.6746 93.641 21.6746C89.6107 21.6746 87.6384 19.499 87.6384 15.1478C87.6384 13.081 88.0957 11.5037 89.0104 10.3615ZM91.7545 17.9489C92.0975 18.5744 92.7549 18.8463 93.641 18.8463C94.5272 18.8463 95.2418 18.5472 95.5848 17.9489C96.0135 17.0514 96.185 16.0996 96.1564 15.1206C96.2136 14.1688 96.0135 13.217 95.5848 12.3467C95.2418 11.7756 94.5843 11.4493 93.641 11.4493C92.8979 11.3949 92.1547 11.7213 91.7545 12.3467C91.3543 12.9178 91.1828 13.8696 91.1828 15.1206C91.1828 16.3716 91.3543 17.3234 91.7545 17.9489ZM113.335 3.94353V21.3754H109.848V20.8315C108.876 21.321 107.79 21.6202 106.675 21.6474C104.789 21.6474 103.445 21.1579 102.731 20.0973C101.988 19.0367 101.616 17.405 101.616 15.1206C101.616 12.8362 102.045 11.2317 102.959 10.1711C103.874 9.11055 105.189 8.62104 107.047 8.62104C107.819 8.64824 108.59 8.72982 109.362 8.86579L109.877 9.00177V3.94353H113.335ZM109.477 18.384L109.877 18.3024V11.7756C109.019 11.6125 108.162 11.5309 107.304 11.5309C105.875 11.5309 105.189 12.7275 105.189 15.1206C105.189 16.3988 105.332 17.3234 105.675 17.8673C105.961 18.4112 106.59 18.7375 107.218 18.6831C107.99 18.6831 108.733 18.5744 109.477 18.384ZM120.138 18.2208C120.624 18.6016 121.253 18.7919 121.911 18.7647C123.54 18.7647 124.969 18.6831 126.255 18.6016L126.999 18.52V20.9675C125.226 21.4298 123.426 21.6746 121.596 21.7018C119.624 21.7018 118.166 21.1579 117.309 20.1789C116.451 19.1998 115.965 17.5681 115.965 15.311C115.965 10.851 117.852 8.62104 121.711 8.62104C125.569 8.62104 127.427 10.4975 127.427 14.2504L127.17 16.5891H119.481C119.424 17.2146 119.652 17.8129 120.138 18.2208ZM123.997 14.0328C123.997 13.0538 123.826 12.3467 123.483 11.9388C123.168 11.5581 122.568 11.3677 121.768 11.3677C120.939 11.3677 120.339 11.5853 119.996 11.9932C119.652 12.4011 119.481 13.1082 119.424 14.0328H123.997ZM139.833 11.7756V21.3754H136.317V11.7756H134.945V8.92018H136.317V8.37629C136.317 6.58143 136.631 5.35766 137.174 4.65059C137.746 3.94353 138.718 3.61719 140.176 3.61719C140.976 3.64438 141.777 3.72597 142.577 3.86194L143.149 3.94353V6.69021L141.205 6.60862C140.805 6.58143 140.404 6.7174 140.119 7.01654C139.919 7.45166 139.833 7.94117 139.861 8.40348V8.89299H143.034V11.7484L139.833 11.7756ZM145.664 10.3615C146.579 9.21933 148.122 8.64824 150.266 8.64824C152.41 8.64824 154.01 9.21933 154.897 10.3615C155.811 11.5037 156.326 13.1082 156.326 15.1478C156.326 19.5262 154.296 21.6746 150.266 21.6746C146.236 21.6746 144.263 19.499 144.263 15.1478C144.263 13.081 144.721 11.5037 145.664 10.3615ZM148.379 17.9489C148.722 18.5744 149.38 18.8463 150.266 18.8463C151.181 18.8463 151.867 18.5472 152.21 17.9489C152.553 17.3234 152.781 16.3988 152.781 15.1206C152.781 13.8425 152.61 12.9178 152.21 12.3467C151.81 11.7756 151.209 11.4765 150.266 11.4765C149.323 11.4765 148.722 11.7756 148.379 12.3467C148.036 12.9178 147.808 13.8696 147.808 15.1206C147.808 16.3716 147.979 17.3234 148.379 17.9489ZM158.841 21.3754V8.92018H162.328V10.2799C163.615 9.49128 165.044 8.94738 166.53 8.64824V11.9932C165.301 12.238 164.072 12.5371 162.872 12.8906L162.357 13.0538V21.3754H158.841ZM78.2343 40.6294V46.3131H74.6327V29.3707H81.55C85.7519 29.3707 87.8099 31.2472 87.8099 34.9729C87.8099 37.1756 86.9524 38.8073 85.1802 39.8407L87.7242 46.3403H83.7796L81.7215 40.6566H78.2343V40.6294ZM83.5223 36.9309C83.9511 36.3598 84.1797 35.6527 84.1226 34.9185C84.1511 34.2386 83.9225 33.5315 83.4651 32.9876C82.9792 32.4709 82.2646 32.199 81.5214 32.2534H78.2057V37.6379H81.55C82.2932 37.7195 83.0078 37.4476 83.5223 36.9309ZM91.0113 35.2176C91.9546 34.1026 93.4981 33.5315 95.6419 33.5315C97.7857 33.5315 99.3864 34.1026 100.273 35.2176C101.187 36.3326 101.645 37.9643 101.645 40.0311C101.645 44.4095 99.6723 46.5579 95.6419 46.5579C91.6116 46.5579 89.6393 44.3823 89.6393 40.0311C89.6393 37.9643 90.1252 36.3598 91.0113 35.2176ZM93.7268 42.8594C94.1556 43.4576 94.8987 43.8112 95.6705 43.7568C96.6138 43.7568 97.2712 43.4305 97.6142 42.8594C98.043 41.9619 98.2145 41.0101 98.1859 40.0311C98.2431 39.0521 98.043 38.1003 97.6142 37.2028C97.2712 36.6317 96.6138 36.3326 95.6705 36.3326C94.8987 36.251 94.1841 36.6045 93.7268 37.2028C93.3838 37.8283 93.2123 38.7257 93.2123 40.0311C93.2123 41.3364 93.3838 42.2611 93.7268 42.8594ZM107.762 46.2859H104.246V33.8307H107.733V34.5377C108.648 33.9666 109.734 33.6403 110.82 33.5587C112.249 33.5587 113.307 33.9394 114.079 34.7009C115.451 33.9938 116.966 33.6131 118.509 33.5587C120.224 33.5587 121.425 34.021 122.111 35C122.797 35.9791 123.111 37.4476 123.111 39.5688V46.3131H119.595V39.6504C119.652 38.8345 119.538 38.0459 119.252 37.2844C118.966 36.7677 118.395 36.4958 117.795 36.5502C117.109 36.5774 116.394 36.6861 115.736 36.8765L115.336 37.0125C115.422 38.2906 115.479 39.2153 115.479 39.8679V46.3131H111.963V39.8951C111.992 39.0249 111.878 38.1275 111.62 37.2844C111.392 36.7949 110.877 36.5502 110.105 36.5502C109.419 36.5502 108.733 36.6589 108.076 36.8765L107.762 36.9853V46.2859ZM136.231 37.7195V42.9138C136.231 43.1857 136.288 43.4848 136.46 43.7296C136.603 43.9472 136.831 44.0559 137.117 44.0559L137.032 46.5851C136.317 46.6123 135.602 46.5579 134.888 46.4219C134.316 46.2859 133.773 46.0412 133.287 45.7148C132.087 46.2587 130.772 46.5579 129.428 46.5851C126.713 46.5851 125.341 45.2253 125.341 42.5058C125.341 41.1733 125.741 40.2215 126.513 39.6776C127.256 39.1065 128.399 38.7801 129.943 38.6986L132.744 38.481V37.6923C132.773 37.3116 132.658 36.9309 132.401 36.6317C132.058 36.4142 131.629 36.3054 131.2 36.3326L126.313 36.5502L126.17 34.2114C127.913 33.7491 129.685 33.5043 131.486 33.4771C133.201 33.4771 134.402 33.8579 135.145 34.5105C135.888 35.1632 136.231 36.251 136.231 37.7195ZM130.343 41.0373C129.342 41.1189 128.885 41.6084 128.885 42.5058C128.885 43.4033 129.314 43.8928 130.171 43.8928C130.886 43.8656 131.629 43.7568 132.315 43.5664L132.715 43.4848V40.8197L130.343 41.0373ZM143.091 46.2859H139.576V33.8307H143.063V34.5377C144.035 33.9394 145.178 33.6131 146.321 33.5587C148.094 33.5587 149.294 34.0482 149.923 35.0272C150.609 36.0063 150.952 37.5292 150.952 39.5144V46.2859H147.436V39.6232C147.493 38.8073 147.35 38.0187 147.036 37.2572C146.779 36.7677 146.207 36.523 145.435 36.523C144.721 36.4958 144.035 36.6045 143.377 36.8493L143.063 36.9853L143.091 46.2859ZM154.039 32.2534V28.854H157.555V32.2534H154.039ZM154.039 46.2859V33.8307H157.555V46.2859H154.039ZM170.846 37.7195V42.9138C170.846 43.1857 170.904 43.4848 171.075 43.7296C171.218 43.9472 171.447 44.0559 171.733 44.0559L171.647 46.5851C170.932 46.6123 170.218 46.5579 169.503 46.4219C168.931 46.2859 168.36 46.0412 167.874 45.7148C166.673 46.2587 165.387 46.5579 164.043 46.5851C161.328 46.5851 159.956 45.2253 159.956 42.5058C159.956 41.1461 160.356 40.2215 161.071 39.6776C161.814 39.1337 163.014 38.7801 164.558 38.6986L167.359 38.481V37.6923C167.388 37.3116 167.273 36.9309 167.016 36.6317C166.673 36.4142 166.244 36.3054 165.816 36.3326L160.928 36.5502L160.785 34.2114C162.529 33.7491 164.301 33.5043 166.102 33.4771C167.817 33.4771 169.017 33.8579 169.76 34.5105C170.446 35.1904 170.846 36.251 170.846 37.7195ZM164.958 41.0373C163.958 41.1189 163.5 41.6084 163.5 42.5058C163.5 43.4033 163.929 43.8928 164.758 43.8928C165.501 43.8656 166.244 43.7568 166.959 43.5664L167.359 43.4848V40.8197L164.958 41.0373Z" fill="#BBBBBB"/>
</svg>
