<svg width="18" height="31" viewBox="0 0 18 31" fill="none" xmlns="http://www.w3.org/2000/svg">
<path d="M0.545315 16.2709H4.25138V29.8195C4.25138 30.087 4.49546 30.3038 4.7967 30.3038H11.0805C11.3817 30.3038 11.6258 30.087 11.6258 29.8195V16.3347H15.8862C16.1632 16.3347 16.3963 16.1501 16.4279 15.9058L17.075 10.9179C17.0928 10.7806 17.0438 10.6432 16.9404 10.5402C16.8369 10.4372 16.6888 10.3782 16.5334 10.3782H11.626V7.25153C11.626 6.30899 12.1975 5.83104 13.3248 5.83104C13.4854 5.83104 16.5334 5.83104 16.5334 5.83104C16.8346 5.83104 17.0787 5.6142 17.0787 5.3468V0.768347C17.0787 0.500849 16.8346 0.284101 16.5334 0.284101H12.1114C12.0802 0.282745 12.011 0.280518 11.9089 0.280518C11.1416 0.280518 8.47473 0.414266 6.36807 2.13528C4.03391 4.04243 4.35837 6.32594 4.43592 6.72186V10.3781H0.545315C0.244083 10.3781 0 10.5949 0 10.8624V15.7866C0 16.0541 0.244083 16.2709 0.545315 16.2709Z" fill="white"/>
</svg>
