<svg xmlns="http://www.w3.org/2000/svg" width="246" height="53" fill="none"><path fill="#000" d="M104.328 7.702V4.205h14.295v3.497h-5.152v15.951h-3.938V7.703h-5.205zM121.947 18.14c.014.881.254 1.508.695 1.909.453.387 1.094.587 1.935.587 1.775 0 3.35-.053 4.752-.173l.801-.08.053 2.83c-2.189.533-4.178.8-5.953.8-2.149 0-3.724-.574-4.685-1.722-.975-1.148-1.455-3.003-1.455-5.58 0-5.125 2.109-7.688 6.327-7.688 4.151 0 6.233 2.15 6.233 6.46l-.28 2.657h-8.423zm4.913-2.923c0-1.148-.187-1.936-.548-2.39-.36-.453-1.001-.667-1.909-.667-.907 0-1.548.227-1.908.694-.374.468-.574 1.255-.588 2.363h4.953zM138.739 9.01c.988 0 2.256.147 3.804.454l.774.173-.12 3.03c-1.508-.147-2.616-.227-3.35-.227-1.322 0-2.189.28-2.616.841-.428.56-.641 1.629-.641 3.19 0 1.562.213 2.643.641 3.217.427.588 1.308.868 2.642.868l3.324-.227.12 3.057c-2.042.4-3.59.6-4.658.6-2.123 0-3.644-.6-4.565-1.788-.921-1.188-1.388-3.097-1.388-5.74 0-2.63.48-4.538 1.428-5.7.948-1.16 2.483-1.748 4.605-1.748zM149.978 23.652h-3.831V3.63h3.831v6.407c1.321-.68 2.496-1.028 3.55-1.028 1.909 0 3.217.56 3.951 1.682.721 1.121 1.095 2.856 1.095 5.206v7.755h-3.831V15.99c0-1.201-.147-2.095-.427-2.67-.28-.573-.854-.867-1.722-.867-.747 0-1.482.12-2.229.347l-.374.12v10.732h-.013zM168.598 23.653V4.205h12.414v3.43h-8.476v5.727h6.927v3.43h-6.927v6.861h-3.938zM183.722 10.985c1.014-1.321 2.696-1.975 5.059-1.975 2.362 0 4.058.654 5.059 1.962 1.014 1.308 1.521 3.137 1.521 5.5 0 5.018-2.189 7.528-6.58 7.528-4.392 0-6.581-2.51-6.581-7.529.014-2.362.521-4.191 1.522-5.486zm2.95 8.73c.4.68 1.108 1.028 2.122 1.028 1.015 0 1.709-.347 2.109-1.028.387-.68.587-1.762.587-3.23 0-1.469-.2-2.537-.587-3.204-.387-.667-1.094-1.001-2.109-1.001-1.014 0-1.708.334-2.096 1.001-.387.667-.587 1.735-.587 3.204-.013 1.468.174 2.536.561 3.23zM198.165 23.653V9.357h3.804v1.522c1.602-.948 3.123-1.575 4.578-1.856v3.858c-1.548.32-2.87.654-3.978 1.001l-.574.2v9.584h-3.83v-.013zM112.043 35.906c-2.082 0-3.123.681-3.123 2.056 0 .614.253 1.081.774 1.401.52.32 1.722.788 3.617 1.402 1.896.614 3.23 1.308 3.991 2.069.761.774 1.148 1.962 1.148 3.564 0 2.042-.614 3.59-1.855 4.632-1.242 1.054-2.857 1.575-4.859 1.575-1.495 0-3.31-.227-5.459-.681l-1.028-.2.4-3.057c2.55.347 4.512.52 5.86.52 2.016 0 3.03-.84 3.03-2.522 0-.614-.227-1.095-.694-1.428-.467-.347-1.402-.721-2.79-1.108-2.215-.628-3.764-1.375-4.672-2.243-.907-.867-1.361-2.069-1.361-3.617 0-1.949.587-3.39 1.775-4.352 1.188-.947 2.803-1.428 4.859-1.428 1.415 0 3.203.187 5.379.574l1.028.2-.32 3.11c-2.697-.32-4.592-.467-5.7-.467zM122.054 39.59c1.014-1.322 2.696-1.976 5.059-1.976 2.362 0 4.058.654 5.059 1.962 1.014 1.309 1.521 3.137 1.521 5.5 0 5.019-2.189 7.528-6.58 7.528-4.378 0-6.581-2.51-6.581-7.528.014-2.363.521-4.191 1.522-5.486zm2.95 8.73c.4.68 1.108 1.027 2.109 1.027 1.014 0 1.708-.347 2.109-1.028.387-.68.587-1.762.587-3.23s-.2-2.536-.587-3.203c-.387-.668-1.095-1.002-2.109-1.002-1.015 0-1.709.334-2.096 1.002-.387.667-.587 1.735-.587 3.203 0 1.455.187 2.536.574 3.23zM141.849 37.614c.988 0 2.256.147 3.804.454l.775.174-.121 3.03c-1.508-.147-2.616-.227-3.35-.227-1.321 0-2.189.28-2.616.84-.427.561-.641 1.63-.641 3.19 0 1.563.214 2.63.641 3.218.427.587 1.308.867 2.643.867l3.323-.227.121 3.057c-2.043.4-3.591.6-4.659.6-2.122 0-3.631-.6-4.565-1.788-.934-1.188-1.388-3.11-1.388-5.74 0-2.63.48-4.538 1.428-5.712.961-1.148 2.496-1.736 4.605-1.736zM149.257 52.258V37.962h3.831v14.296h-3.831zm0-16.125V32.25h3.831v3.884h-3.831zM167.597 42.42v5.953c.04.454.121.774.227.961.107.187.347.307.721.387l-.12 2.883c-.974 0-1.749-.066-2.336-.2-.574-.133-1.161-.4-1.762-.8-1.375.667-2.776 1-4.205 1-2.949 0-4.431-1.561-4.431-4.685 0-1.521.414-2.603 1.228-3.243.814-.641 2.082-1.015 3.777-1.135l3.057-.227v-.88c0-.588-.133-1.002-.4-1.215-.267-.227-.694-.334-1.282-.334l-5.379.227-.12-2.657c2.042-.56 3.978-.827 5.82-.827s3.163.387 3.977 1.148c.815.747 1.228 1.962 1.228 3.644zm-6.433 3.777c-1.068.094-1.602.668-1.602 1.722 0 1.055.467 1.575 1.401 1.575.721 0 1.522-.12 2.376-.347l.427-.12v-3.056l-2.602.226zM171.429 52.257V32.235h3.831v20.022h-3.831zM193.706 45.277v-3.43h5.66v10.09c-2.723.44-4.939.654-6.634.654-3.03 0-5.112-.814-6.247-2.429-1.135-1.615-1.709-4.191-1.709-7.728 0-3.524.588-6.074 1.776-7.636 1.174-1.561 3.19-2.349 6.033-2.349 1.775 0 3.684.2 5.753.6l1.028.201-.12 3.057c-2.283-.254-4.165-.374-5.62-.374s-2.483.174-3.07.52c-.587.348-1.028.975-1.308 1.896-.28.921-.414 2.51-.414 4.752s.28 3.804.828 4.699c.56.894 1.695 1.348 3.43 1.348l2.376-.12V45.25h-1.762v.027zM203.517 39.59c1.015-1.322 2.697-1.976 5.059-1.976 2.363 0 4.058.654 5.059 1.962 1.015 1.309 1.522 3.137 1.522 5.5 0 5.019-2.189 7.528-6.581 7.528-4.391 0-6.58-2.51-6.58-7.528.013-2.363.507-4.191 1.521-5.486zm2.95 8.73c.401.68 1.108 1.027 2.123 1.027 1.014 0 1.708-.347 2.095-1.028.387-.68.587-1.762.587-3.23s-.2-2.536-.587-3.203c-.387-.668-1.094-1.002-2.095-1.002-1.015 0-1.709.334-2.109 1.002-.388.667-.588 1.735-.588 3.203 0 1.455.187 2.536.574 3.23zM218.734 39.59c1.015-1.322 2.696-1.976 5.059-1.976s4.058.654 5.059 1.962c1.014 1.309 1.522 3.137 1.522 5.5 0 5.019-2.19 7.528-6.581 7.528-4.392 0-6.581-2.51-6.581-7.528.014-2.363.508-4.191 1.522-5.486zm2.95 8.73c.4.68 1.108 1.027 2.122 1.027 1.015 0 1.709-.347 2.109-1.028.387-.68.588-1.762.588-3.23s-.201-2.536-.588-3.203c-.387-.668-1.094-1.002-2.109-1.002-1.014 0-1.708.334-2.095 1.002-.387.667-.588 1.735-.588 3.203-.013 1.455.174 2.536.561 3.23zM245.336 32.235v20.022h-3.804v-.6c-1.335.627-2.482.948-3.457.948-2.082 0-3.524-.601-4.351-1.802-.815-1.202-1.228-3.11-1.228-5.7 0-2.603.493-4.498 1.468-5.686.988-1.188 2.469-1.789 4.445-1.789.614 0 1.455.093 2.549.28l.548.12v-5.78h3.83v-.013zm-4.231 16.592l.401-.08v-7.528c-1.055-.187-1.989-.28-2.804-.28-1.548 0-2.322 1.374-2.322 4.124 0 1.481.173 2.55.52 3.177.348.627.908.947 1.709.947a10.729 10.729 0 002.496-.36z"/><path fill="#000" fill-rule="evenodd" d="M32.876 41.78a11.976 11.976 0 01-5.192-9.878V3.297L46.837 0l19.154 3.297v28.605c0 3.95-1.935 7.635-5.192 9.877-5.673 3.898-13.962 9.598-13.962 9.598l-13.962-9.598zm3.364-4.886a6.063 6.063 0 01-2.63-4.992V8.289L46.838 6.02l13.228 2.27v23.612a6.081 6.081 0 01-2.63 4.992l-10.611 7.288c.013 0-10.586-7.288-10.586-7.288zm-11.854-.467L14.75 23.145h9.638v13.282zm44.903 0l9.638-13.282h-9.638v13.282zM24.386 19.862h-4.765c-4.565 0-8.85-2.19-11.52-5.873-.333-.454-.533-.734-.533-.734h16.819v6.607zm44.903 0h4.766c4.565 0 8.85-2.19 11.519-5.873.32-.454.534-.734.534-.734H69.289v6.607zM24.386 9.958V3.297H.346s.228.307.575.788A14.265 14.265 0 0012.44 9.957h11.947zm44.903 0V3.297h24.04s-.227.307-.574.788a14.265 14.265 0 01-11.52 5.873H69.29z" clip-rule="evenodd"/></svg>