<svg width="29" height="31" viewBox="0 0 29 31" fill="none" xmlns="http://www.w3.org/2000/svg">
<path d="M28.4591 15.4803C28.1098 14.1324 26.8682 13.1381 25.3738 12.9901C21.8357 12.6391 18.2529 12.6374 14.6877 12.6391C11.1209 12.6374 7.53888 12.6391 3.99973 12.9901C2.50606 13.1384 1.26519 14.1327 0.916199 15.4803C0.418807 17.3997 0.412842 19.4949 0.412842 21.4713C0.412842 23.4477 0.412842 25.5426 0.910233 27.462C1.25923 28.8096 2.5001 29.8039 3.99451 29.9522C7.53292 30.3035 11.115 30.3048 14.6813 30.3035C18.2481 30.3052 21.8294 30.3035 25.3689 29.9522C26.8626 29.8039 28.1042 28.8096 28.4532 27.462C28.9502 25.5426 28.9528 23.4477 28.9528 21.4713C28.9524 19.4946 28.9562 17.3997 28.4591 15.4803ZM8.55343 16.968H6.4878V26.715H4.56908V16.968H2.54111V15.3714H8.55343V16.968ZM13.7648 26.7153H12.0389V25.7932C11.3532 26.4912 10.7022 26.8316 10.068 26.8316C9.51204 26.8316 9.12949 26.6316 8.95686 26.2034C8.8629 25.9478 8.80473 25.5432 8.80473 24.9466V18.2629H10.5292V24.486C10.5292 24.8449 10.5292 25.0313 10.5449 25.0817C10.5862 25.3194 10.7171 25.4399 10.9483 25.4399C11.2943 25.4399 11.656 25.2032 12.0385 24.7227V18.2629H13.7645L13.7648 26.7153ZM20.3171 24.1784C20.3171 24.9602 20.2578 25.5234 20.1426 25.8816C19.9121 26.5104 19.4509 26.8316 18.7649 26.8316C18.1511 26.8316 17.559 26.5289 16.9822 25.8965V26.7157H15.2578V15.3714H16.9822V19.0761C17.5393 18.4672 18.1306 18.1593 18.7649 18.1593C19.4509 18.1593 19.9125 18.4801 20.1426 19.1129C20.2585 19.4529 20.3171 20.0118 20.3171 20.8121V24.1784ZM26.826 22.7682H23.3767V24.2665C23.3767 25.0489 23.6649 25.4396 24.2578 25.4396C24.6825 25.4396 24.9297 25.2346 25.0281 24.8254C25.0441 24.7423 25.0669 24.4019 25.0669 23.7877H26.8264V24.0112C26.8264 24.5049 26.8051 24.8449 26.7895 24.9979C26.7317 25.3369 26.596 25.6445 26.3868 25.9154C25.9092 26.5293 25.2015 26.8319 24.3007 26.8319C23.3984 26.8319 22.7116 26.5435 22.213 25.9664C21.8473 25.5432 21.6594 24.877 21.6594 23.9788V21.0184C21.6594 20.1148 21.826 19.4539 22.1925 19.0268C22.6907 18.4483 23.3771 18.1603 24.2582 18.1603C25.1236 18.1603 25.8096 18.4483 26.2928 19.0268C26.6541 19.4539 26.8268 20.1148 26.8268 21.0184V22.7682H26.826Z" fill="white"/>
<path d="M24.2425 19.5383C23.666 19.5383 23.3771 19.9294 23.3771 20.7108V21.4928H25.1015V20.7108C25.1011 19.9294 24.8129 19.5383 24.2425 19.5383Z" fill="white"/>
<path d="M17.8422 19.5383C17.5581 19.5383 17.2703 19.6575 16.9821 19.9108V25.0626C17.2699 25.3189 17.5581 25.4401 17.8422 25.4401C18.3396 25.4401 18.5924 25.0626 18.5924 24.2994V20.6916C18.5924 19.9294 18.3396 19.5383 17.8422 19.5383Z" fill="white"/>
<path d="M18.8056 11.8602C19.4413 11.8602 20.1028 11.5171 20.7967 10.8112V11.743H22.5398V3.20093H20.7967V9.72954C20.4104 10.2143 20.0443 10.454 19.6956 10.454C19.4622 10.454 19.325 10.3315 19.287 10.0914C19.2657 10.0408 19.2657 9.85238 19.2657 9.48983V3.20093H17.5282V9.95535C17.5282 10.5586 17.5864 10.9669 17.6826 11.2255C17.8578 11.6582 18.2445 11.8602 18.8056 11.8602Z" fill="white"/>
<path d="M6.67077 7.10056V11.7429H8.6037V7.10056L10.9289 0.280518H8.97432L7.6555 4.78185L6.28336 0.280518H4.24939C4.65693 1.34302 5.08088 2.41083 5.48842 3.47433C6.10849 5.07289 6.49552 6.2781 6.67077 7.10056Z" fill="white"/>
<path d="M13.5196 11.8602C14.3928 11.8602 15.0714 11.5685 15.5528 10.9857C15.9185 10.5582 16.0938 9.88477 16.0938 8.97688V5.98566C16.0938 5.07247 15.9189 4.40495 15.5528 3.97352C15.0714 3.38912 14.3932 3.09741 13.5196 3.09741C12.6508 3.09741 11.9726 3.38912 11.4901 3.97352C11.1198 4.40495 10.9446 5.07247 10.9446 5.98566V8.97688C10.9446 9.88477 11.1198 10.5582 11.4901 10.9857C11.9722 11.5685 12.6508 11.8602 13.5196 11.8602ZM12.6877 5.67541C12.6877 4.88506 12.9577 4.49104 13.5196 4.49104C14.0815 4.49104 14.3507 4.88473 14.3507 5.67541V9.26858C14.3507 10.0589 14.0815 10.4543 13.5196 10.4543C12.9577 10.4543 12.6877 10.0589 12.6877 9.26858V5.67541Z" fill="white"/>
</svg>
