<svg xmlns="http://www.w3.org/2000/svg" width="36" height="31" fill="none" viewBox="0 0 36 31"><path fill="#fff" d="M24.2106 30.1368C24.0417 30.1908 23.8719 30.2562 23.6982 30.2832C23.0326 30.3887 22.6066 30.0836 22.6027 29.4795C22.5938 28.3577 22.5938 27.2376 22.6145 26.1157C22.6361 24.8256 22.6027 23.5521 21.4964 22.4878C22.1541 22.3832 22.7391 22.31 23.3114 22.1931C27.1024 21.42 29.0715 19.2966 29.3228 15.7724C29.4514 13.9784 29.0911 12.3327 27.7483 10.9197C27.6511 10.8204 27.6462 10.5946 27.6923 10.4499C28.0496 9.28184 27.9456 8.14082 27.5294 6.99892C27.4263 6.71388 27.2555 6.62584 26.9384 6.64414C25.8253 6.69906 24.8054 7.04599 23.9063 7.57945C23.0395 8.09636 22.2326 8.20881 21.2029 7.9996C18.9354 7.54546 16.6532 7.67795 14.3906 8.14343C14.1344 8.19747 13.7898 8.12513 13.5552 8.00309C12.4931 7.45045 11.431 6.91349 10.206 6.69906C9.25871 6.53518 9.17625 6.57702 8.92496 7.3903C8.60888 8.41539 8.57747 9.44136 8.90042 10.4726C8.94656 10.6225 8.89846 10.8631 8.78557 10.9738C6.2756 13.4607 7.18457 18.1599 8.87588 19.9599C10.1912 21.3581 11.9385 21.9874 13.8782 22.3143C14.2168 22.3701 14.5535 22.4128 14.8922 22.4651C14.6016 23.1363 14.3405 23.77 14.045 24.3933C13.9871 24.5136 13.8036 24.6147 13.6534 24.6652C11.751 25.3207 10.1157 24.8387 9.02705 23.3054C8.44496 22.4878 7.69795 21.8767 6.58481 21.6998C6.54947 21.6937 6.51315 21.6771 6.48076 21.6815C6.18137 21.7512 5.88492 21.8244 5.58651 21.8959C5.75437 22.1034 5.87314 22.3823 6.09793 22.507C7.04126 23.0369 7.65476 23.7927 8.06017 24.6844C8.69723 26.0826 9.93406 26.7058 11.5409 26.8279C12.3253 26.8845 13.1174 26.8366 13.9763 26.8366C13.9763 27.7048 14.0117 28.6959 13.9616 29.6826C13.9361 30.2143 13.3343 30.427 12.6138 30.2091C10.7027 29.6286 8.93085 28.7961 7.40053 27.6263C1.87506 23.3996 -0.255032 18.0562 1.58156 11.8019C3.41225 5.56762 8.18385 1.74356 15.3182 0.543263C25.1902 -1.11467 34.542 5.26951 35.5216 14.1685C36.2951 21.1837 31.6453 27.7484 24.2106 30.1368ZM14.9039 22.432C14.898 22.4442 14.8941 22.4529 14.8882 22.4651C14.9059 22.4677 14.9236 22.4703 14.9422 22.473C14.956 22.4738 14.9677 22.4956 14.9039 22.432ZM10.4376 25.2048C10.5917 25.2894 10.739 25.3966 10.9058 25.4428C10.9667 25.4602 11.0796 25.3373 11.2789 25.2065C11.002 25.1133 10.8391 25.0313 10.6673 25.0104C10.6006 25.0034 10.5142 25.1368 10.4376 25.2048ZM11.8443 25.4192C11.8668 25.5108 12.072 25.6249 12.1927 25.6232C12.3095 25.6215 12.4234 25.4837 12.5402 25.4053C12.4342 25.319 12.3282 25.2353 12.0023 24.9747C11.9316 25.156 11.8148 25.3024 11.8443 25.4192ZM13.5699 25.0505C13.4247 25.081 13.302 25.2004 13.1694 25.2824C13.247 25.3695 13.3245 25.4506 13.4492 25.5875C13.621 25.448 13.7378 25.3512 13.8556 25.2571C13.7574 25.1813 13.6426 25.0348 13.5699 25.0505ZM9.29208 24.5336C9.37258 24.6687 9.49724 24.7855 9.66608 24.9764C9.77896 24.8125 9.90166 24.687 9.88007 24.6617C9.77307 24.5371 9.62779 24.4351 9.48448 24.3418C9.47466 24.3349 9.2754 24.504 9.29208 24.5336Z"/></svg>