<svg xmlns="http://www.w3.org/2000/svg" width="20" height="20" fill="none" viewBox="0 0 20 20"><path fill="#000" d="M14.9998 6.6665C14.9998 3.90817 12.7582 1.6665 9.99984 1.6665C7.2415 1.6665 4.99984 3.90817 4.99984 6.6665C4.99984 10.4165 9.99984 15.8332 9.99984 15.8332C9.99984 15.8332 14.9998 10.4165 14.9998 6.6665ZM8.33317 6.6665C8.33317 5.74984 9.08317 4.99984 9.99984 4.99984C10.9165 4.99984 11.6665 5.74984 11.6665 6.6665C11.6665 7.58317 10.9248 8.33317 9.99984 8.33317C9.08317 8.33317 8.33317 7.58317 8.33317 6.6665ZM4.1665 16.6665V18.3332H15.8332V16.6665H4.1665Z"/></svg>