<svg width="106" height="60" viewBox="0 0 106 60"  xmlns="http://www.w3.org/2000/svg">
<path fill-rule="evenodd" clip-rule="evenodd" d="M70.1439 -82.4032C85.4037 -83.5438 104.242 -91.1142 114.869 -80.1032C125.871 -68.7034 115.661 -49.5693 117.064 -33.788C118.043 -22.7626 122.963 -12.7579 121.832 -1.74693C120.445 11.7609 118.631 25.7694 109.88 36.1529C99.7223 48.2073 85.8101 57.8423 70.1439 59.5901C53.5933 61.4365 35.6498 57.0809 23.3977 45.8013C11.6392 34.976 11.3535 17.3308 7.41562 1.84035C3.78218 -12.4526 -2.86661 -26.7636 1.35915 -40.8928C5.62942 -55.1708 17.2675 -66.0616 30.0266 -73.7615C42.0323 -81.0067 56.1606 -81.358 70.1439 -82.4032Z" fill="currentColor"/>
</svg>
