<svg xmlns="http://www.w3.org/2000/svg" width="19" height="18" fill="none" viewBox="0 0 19 18"><g clip-path="url(#clip0)"><path stroke="#000" stroke-linecap="round" stroke-linejoin="round" stroke-width="2" d="M18.2087 2.25022C17.4505 2.75683 16.6112 3.1443 15.7228 3.39772C15.246 2.87835 14.6124 2.51024 13.9076 2.34316C13.2027 2.17609 12.4608 2.21811 11.782 2.46356C11.1032 2.709 10.5203 3.14602 10.1123 3.71551C9.7042 4.28499 9.49059 4.95947 9.50033 5.64772V6.39772C8.10908 6.43189 6.7305 6.13958 5.48737 5.5468C4.24425 4.95403 3.17516 4.07919 2.37533 3.00022C2.37533 3.00022 -0.791341 9.75022 6.33366 12.7502C4.70324 13.7987 2.76099 14.3244 0.791992 14.2502C7.91699 18.0002 16.6253 14.2502 16.6253 5.62522C16.6246 5.41631 16.6034 5.20791 16.562 5.00272C17.37 4.24784 17.9401 3.29475 18.2087 2.25022V2.25022Z"/></g><defs><clipPath id="clip0"><rect width="19" height="18" fill="#fff"/></clipPath></defs></svg>