<?xml version="1.0" encoding="UTF-8"?><svg xmlns="http://www.w3.org/2000/svg" viewBox="0 0 235 100"><defs><style>.e{fill:none;}.f{fill:#ee4036;}.g{fill:#fff;}.h{fill:#768c93;}.i{fill:#c53733;mix-blend-mode:multiply;}.j{clip-path:url(#d);}.k{isolation:isolate;}</style><clipPath id="d"><circle class="e" cx="50" cy="50" r="50"/></clipPath></defs><g class="k"><g id="b"><g id="c"><g><g><circle class="f" cx="50" cy="50" r="50"/><g class="j"><g><path class="i" d="m66.48,27.28l32.09,34.63c-4.2,17.23-16.92,29.5-31.15,34.96l-15.52-13.6-.04-5.84,10.7-9.57-14.18-15.43.57-12.68,17.37-.05.15-12.44Z"/><path class="g" d="m61.88,36.37c-.79-.06-1.8-.09-3.04-.09-1.66,0-3.24.2-4.75.61-1.5.41-2.84,1.02-3.99,1.85-1.16.83-2.08,1.87-2.75,3.13-.68,1.25-1.01,2.71-1.01,4.37s.29,3.15.87,4.34c.58,1.2,1.4,2.18,2.46,2.95,1.06.77,2.35,1.33,3.88,1.68,1.52.35,3.23.52,5.12.52,2.01,0,3.97-.16,5.9-.49,1.93-.33,3.57-.65,4.92-.95v-18.58c0-3.86-1.01-6.66-3.01-8.42-2.61-2.3-7.92-2.93-11.56-3.16-.35-.02-2.48-.1-4.38-.08-2.18.02-3.64.07-4.55.13-4.97.32-7.93.89-10.86,2.83-3.46,2.28-3.72,10.31-3.76,11.52-.03.85-.81,14.3,3.75,23.26,4.41,8.67,14.43,18.45,15.07,19.14.65.68,1.72,2.38,1.72,2.38,0,0,1.04-1.67,1.77-2.38,3.74-3.69,13.06-14.33,15.24-19.55-2.89.55-4.63.8-6.41,1.04-.84,2.21-7.86,10.92-10.59,14.18-3.38-4.12-8.87-10.6-12.01-16.76-4.08-8.02-3.4-21.34-3.39-21.55.13-2.71.22-5.52,2.46-7.52,1.76-1.57,7.75-2.08,11.42-2.08,5.94,0,10.32.74,11.74,2.07,1.07,1,1.74,2.47,1.74,4.75v1.1c-.54-.08-1.21-.14-2-.2Zm2,14.15c-.73.19-1.57.34-2.52.43-.95.1-1.86.14-2.75.14-.69,0-1.43-.04-2.2-.12-.77-.08-1.48-.29-2.11-.64-.64-.35-1.17-.85-1.59-1.51-.43-.66-.64-1.56-.64-2.72,0-1.81.63-3.16,1.88-4.05,1.25-.89,3.08-1.33,5.47-1.33.62,0,1.37.04,2.26.12.89.08,1.62.15,2.2.23v9.44Z"/></g></g></g><g><g><path class="h" d="m122.09,60.03c.24-.03.53-.05.85-.07.33-.02.64-.03.94-.03.18,0,.42,0,.71.02.29.01.58.05.86.11l2.07,2.62c-.33.09-.76.13-1.3.13-.24,0-.51-.01-.8-.03-.29-.02-.56-.06-.8-.12l-.87-1.36-.85,1.36c-.18.06-.41.1-.67.12-.26.02-.52.03-.78.03-.57,0-1.05-.04-1.45-.13l2.09-2.64Zm.49,6.61h-1.43c-.04-.18-.07-.38-.1-.59-.02-.21-.03-.4-.03-.59,0-.38.04-.76.13-1.13h4.39v11.03c-.51.09-1.01.13-1.49.13s-.96-.04-1.47-.13v-8.72Z"/><path class="h" d="m128.53,64.34c.2-.04.4-.07.6-.1.2-.02.42-.03.66-.03s.45.01.64.03c.18.02.38.05.58.1.04.07.08.17.12.31.04.14.07.28.1.43.03.15.05.3.07.44.02.14.04.26.05.36.14-.21.31-.43.51-.64.2-.21.43-.41.69-.58.26-.17.56-.31.89-.42.33-.11.69-.16,1.09-.16,1.25,0,2.19.34,2.83,1.02.63.68.95,1.76.95,3.22v7.04c-.51.09-1.02.13-1.51.13s-1-.04-1.51-.13v-6.23c0-.77-.12-1.36-.35-1.77-.23-.41-.64-.62-1.23-.62-.24,0-.49.04-.75.11-.26.07-.49.21-.69.42s-.37.49-.5.86c-.13.37-.19.85-.19,1.45v5.78c-.51.09-1.02.13-1.51.13s-1-.04-1.51-.13v-11.03Z"/><path class="h" d="m147.88,70.57c-.8-.23-1.42-.57-1.87-1.01-.45-.45-.67-1.12-.67-2.02,0-1.08.39-1.93,1.16-2.54.77-.61,1.83-.92,3.17-.92.55,0,1.1.05,1.64.15.54.1,1.09.25,1.64.45-.03.37-.1.75-.21,1.15-.11.4-.25.75-.41,1.05-.34-.14-.72-.27-1.13-.37-.41-.11-.85-.16-1.3-.16-.48,0-.86.07-1.13.22-.27.15-.41.39-.41.71s.1.53.29.66.47.25.82.36l1.22.36c.4.11.76.25,1.08.42.32.16.59.37.82.61.23.24.41.54.53.9s.19.79.19,1.3-.11,1.02-.33,1.47c-.22.46-.54.85-.96,1.18-.42.33-.93.6-1.53.79-.6.19-1.27.29-2.03.29-.34,0-.65-.01-.94-.03-.28-.02-.56-.06-.82-.11-.26-.05-.52-.11-.78-.18s-.53-.16-.83-.28c.03-.38.1-.77.2-1.16.11-.39.25-.77.42-1.14.47.19.91.32,1.33.42.42.09.86.14,1.31.14.2,0,.42-.02.65-.05.23-.04.45-.1.65-.19.2-.09.37-.21.5-.36.14-.15.2-.34.2-.59,0-.34-.1-.59-.31-.74-.21-.15-.49-.28-.86-.39l-1.32-.38Z"/><path class="h" d="m156.15,66.64h-1.43c-.04-.18-.07-.38-.1-.59-.02-.21-.03-.4-.03-.59,0-.38.04-.76.13-1.13h4.39v11.03c-.51.09-1.01.13-1.49.13s-.96-.04-1.47-.13v-8.72Zm-.45-4.16c-.09-.48-.13-.96-.13-1.43s.04-.93.13-1.43c.24-.04.5-.07.78-.1s.53-.03.76-.03c.24,0,.5.01.79.03.28.02.55.05.79.1.04.24.07.48.09.71.01.23.02.47.02.71,0,.23,0,.46-.02.7-.01.24-.04.48-.09.73-.24.04-.5.07-.78.09-.28.01-.54.02-.78.02-.23,0-.48,0-.77-.02-.28-.01-.55-.04-.79-.09Z"/><path class="h" d="m168.29,73.53c1.29.03,2.25.32,2.86.86.61.55.92,1.33.92,2.34,0,.6-.16,1.14-.47,1.63-.31.49-.74.91-1.28,1.25-.54.34-1.18.6-1.92.79-.74.18-1.54.28-2.39.28s-1.58-.07-2.18-.2c-.6-.14-1.08-.32-1.46-.57-.38-.24-.65-.54-.81-.9-.16-.36-.25-.75-.25-1.17,0-.64.15-1.17.46-1.58.31-.41.71-.78,1.23-1.09-.33-.2-.59-.44-.78-.74-.19-.29-.29-.66-.29-1.12,0-.54.11-.98.34-1.32.23-.34.56-.67,1-.98-.5-.36-.88-.79-1.15-1.3-.27-.51-.41-1.08-.41-1.71,0-.55.11-1.07.32-1.55.21-.48.52-.89.93-1.24.41-.35.9-.62,1.48-.82.58-.2,1.24-.3,1.96-.3s1.36.11,1.96.33c.6.22,1.09.5,1.49.84.27-.36.6-.62,1-.8.4-.18.94-.27,1.62-.27.03.18.05.37.07.54.02.18.03.37.03.57,0,.23,0,.46-.02.68-.01.23-.04.46-.09.7h-1.73c.07.14.14.31.19.51.06.2.09.46.09.79,0,.55-.1,1.07-.31,1.55-.21.48-.51.89-.91,1.23-.4.34-.89.61-1.46.81-.58.2-1.23.3-1.95.3-.61,0-1.16-.06-1.64-.19-.24.16-.39.32-.45.5-.06.18-.09.34-.09.5,0,.23.07.41.22.55.15.14.45.22.91.23l2.92.04Zm-2.73,2.22c-.31-.01-.57.02-.78.11-.21.09-.37.2-.49.33-.12.13-.21.28-.26.45-.05.16-.07.32-.07.48,0,.54.2.91.61,1.1s.95.29,1.63.29c.9,0,1.62-.14,2.16-.43.55-.28.82-.67.82-1.15,0-.14-.02-.28-.05-.41-.04-.13-.1-.25-.2-.35-.1-.11-.24-.2-.42-.27-.18-.07-.42-.11-.71-.11l-2.24-.04Zm.87-5.82c.6,0,1.03-.17,1.29-.51.26-.34.39-.81.39-1.41s-.13-1.07-.39-1.42c-.26-.35-.69-.52-1.29-.52s-1.05.17-1.32.52c-.27.35-.41.82-.41,1.42s.13,1.07.41,1.41c.27.34.71.51,1.32.51Z"/><path class="h" d="m173.98,64.34c.51-.09,1.02-.13,1.51-.13s1,.04,1.51.13v5.84c0,.58.05,1.06.14,1.44.09.38.23.68.43.9.19.22.43.38.71.47.28.09.62.14,1,.14.53,0,.97-.05,1.32-.15v-8.64c.51-.09,1.01-.13,1.49-.13s1,.04,1.51.13v10.6c-.46.16-1.06.31-1.8.46-.75.15-1.53.22-2.34.22-.73,0-1.42-.06-2.09-.17-.67-.11-1.25-.36-1.76-.73-.5-.37-.91-.91-1.21-1.62-.3-.71-.45-1.66-.45-2.84v-5.93Z"/><path class="h" d="m186.37,64.34c.21-.04.42-.07.61-.1.19-.02.4-.03.63-.03.21,0,.42.01.63.04.21.03.41.06.61.11.04.07.08.17.12.31.04.14.07.28.1.43.03.15.05.3.07.45.02.15.04.27.05.37.31-.44.7-.84,1.15-1.18.45-.35,1.02-.52,1.71-.52.14,0,.31,0,.49.02.18.01.32.04.41.06.03.14.05.31.06.49.01.18.02.38.02.58,0,.24-.01.51-.03.79-.02.28-.06.55-.12.81-.16-.03-.33-.04-.52-.04h-.35c-.24,0-.51.02-.81.07-.3.05-.58.18-.85.39-.27.21-.49.53-.67.96-.18.43-.27,1.02-.27,1.79v5.25c-.26.04-.51.07-.77.09-.26.01-.51.02-.75.02s-.49,0-.74-.02c-.25-.01-.51-.04-.78-.09v-11.05Z"/><path class="h" d="m200.24,68.11c0-.34-.06-.62-.17-.83-.11-.21-.27-.38-.47-.5-.2-.12-.44-.2-.74-.25-.29-.04-.61-.06-.97-.06-.77,0-1.59.15-2.45.45-.2-.37-.35-.72-.45-1.05-.1-.33-.15-.72-.15-1.17.63-.21,1.25-.37,1.88-.47.63-.1,1.21-.15,1.75-.15,1.48,0,2.63.36,3.47,1.07.83.71,1.25,1.85,1.25,3.41v6.4c-.5.16-1.1.31-1.81.45-.71.14-1.51.21-2.41.21-.73,0-1.39-.06-1.99-.19-.6-.13-1.12-.34-1.56-.64-.43-.3-.77-.68-1-1.15-.23-.47-.35-1.05-.35-1.73s.15-1.25.44-1.72c.29-.46.67-.83,1.13-1.11.46-.28.98-.48,1.55-.6.57-.12,1.14-.18,1.71-.18.41,0,.87.02,1.37.06v-.26Zm0,2.2c-.17-.03-.36-.05-.55-.07-.2-.02-.38-.03-.53-.03-.7,0-1.25.12-1.65.37-.41.25-.61.65-.61,1.21,0,.37.08.65.23.85.16.2.34.34.57.44.22.09.45.15.7.17.25.02.47.03.65.03.21,0,.43-.02.64-.05s.4-.07.55-.1v-2.82Z"/><path class="h" d="m205.87,64.34c.2-.04.4-.07.6-.1.2-.02.42-.03.66-.03s.45.01.64.03c.18.02.38.05.58.1.04.07.08.17.12.31.04.14.07.28.1.43.03.15.05.3.07.44.02.14.04.26.05.36.14-.21.31-.43.51-.64.2-.21.43-.41.69-.58.26-.17.56-.31.89-.42.33-.11.69-.16,1.09-.16,1.25,0,2.19.34,2.83,1.02.63.68.95,1.76.95,3.22v7.04c-.51.09-1.02.13-1.51.13s-1-.04-1.51-.13v-6.23c0-.77-.12-1.36-.35-1.77-.23-.41-.64-.62-1.23-.62-.24,0-.49.04-.75.11-.26.07-.49.21-.69.42s-.37.49-.5.86c-.13.37-.19.85-.19,1.45v5.78c-.51.09-1.02.13-1.51.13s-1-.04-1.51-.13v-11.03Z"/><path class="h" d="m218.68,66.64h-1.39l-.11-.43,3.99-5.1h.49v3.22h2.58c.04.21.07.41.09.58s.02.35.02.53c0,.2,0,.39-.02.58-.01.18-.04.39-.09.62h-2.58v4.33c0,.44.04.8.11,1.07.07.27.17.48.31.64.14.16.3.26.5.32.2.06.43.09.7.09.21,0,.42-.02.63-.05s.39-.07.54-.1c.1.27.17.55.21.84.04.29.06.55.06.78,0,.16,0,.29-.01.39,0,.11-.02.21-.03.31-.65.16-1.33.23-2.03.23-1.29,0-2.28-.3-2.96-.91-.68-.6-1.02-1.59-1.02-2.95v-4.99Zm2.05,10.17c.44-.1.92-.15,1.45-.15.24,0,.49.01.75.03.26.02.5.06.75.12l-1.39,3.58c-.4.1-.79.15-1.17.15-.41,0-.84-.05-1.28-.15l.9-3.58Z"/><path class="h" d="m232.06,68.11c0-.34-.06-.62-.17-.83-.11-.21-.27-.38-.47-.5-.2-.12-.44-.2-.74-.25-.29-.04-.61-.06-.97-.06-.77,0-1.59.15-2.45.45-.2-.37-.35-.72-.45-1.05-.1-.33-.15-.72-.15-1.17.63-.21,1.25-.37,1.88-.47.63-.1,1.21-.15,1.75-.15,1.48,0,2.63.36,3.47,1.07.83.71,1.25,1.85,1.25,3.41v6.4c-.5.16-1.1.31-1.81.45-.71.14-1.51.21-2.41.21-.73,0-1.39-.06-1.99-.19s-1.12-.34-1.56-.64c-.43-.3-.77-.68-1-1.15s-.35-1.05-.35-1.73.15-1.25.44-1.72c.29-.46.67-.83,1.13-1.11.46-.28.98-.48,1.55-.6.57-.12,1.14-.18,1.71-.18.41,0,.87.02,1.37.06v-.26Zm-5.16-8.06c.2-.06.41-.1.63-.12s.43-.03.63-.03c.21,0,.42.01.61.04s.39.07.61.13c.01.11.04.23.07.35.04.12.1.23.18.34.09.11.2.19.35.26.15.06.35.1.61.1s.46-.03.61-.1c.15-.06.27-.15.35-.26.09-.11.15-.22.18-.34.04-.12.06-.24.07-.35.24-.06.46-.1.66-.13.2-.03.41-.04.64-.04.18,0,.38.01.59.03.21.02.41.06.61.12-.06.6-.22,1.08-.48,1.46-.26.38-.57.68-.93.9-.36.22-.74.37-1.15.45-.41.08-.8.12-1.15.12s-.74-.04-1.14-.12c-.41-.08-.79-.23-1.15-.45-.36-.22-.67-.52-.93-.9-.26-.38-.41-.86-.47-1.46Zm5.16,10.26c-.17-.03-.36-.05-.55-.07-.2-.02-.38-.03-.53-.03-.7,0-1.25.12-1.65.37-.4.25-.61.65-.61,1.21,0,.37.08.65.23.85.16.2.34.34.56.44.22.09.45.15.7.17.25.02.47.03.65.03.21,0,.43-.02.64-.05s.4-.07.55-.1v-2.82Z"/></g><g><path class="h" d="m133.86,35.72c0-.76-.13-1.39-.38-1.86-.26-.48-.61-.85-1.05-1.12-.45-.27-1-.45-1.65-.55-.65-.1-1.38-.14-2.17-.14-1.72,0-3.55.33-5.49,1-.45-.83-.78-1.61-1-2.34-.22-.73-.33-1.61-.33-2.63,1.4-.48,2.8-.83,4.2-1.05,1.4-.22,2.71-.33,3.92-.33,3.31,0,5.9.8,7.76,2.39,1.86,1.59,2.79,4.14,2.79,7.64v14.33c-1.12.35-2.47.69-4.06,1-1.59.32-3.39.48-5.4.48-1.62,0-3.11-.14-4.47-.43-1.35-.29-2.52-.76-3.49-1.43-.97-.67-1.72-1.53-2.25-2.58-.53-1.05-.79-2.34-.79-3.87s.33-2.81.98-3.85c.65-1.03,1.5-1.86,2.53-2.48,1.03-.62,2.19-1.07,3.46-1.34,1.27-.27,2.55-.41,3.82-.41.92,0,1.94.05,3.06.14v-.57Zm0,4.92c-.38-.06-.8-.12-1.24-.17-.45-.05-.84-.07-1.19-.07-1.56,0-2.79.28-3.7.84-.91.56-1.36,1.46-1.36,2.7,0,.83.17,1.47.53,1.91.35.45.77.77,1.27.98.49.21,1.02.33,1.58.38.56.05,1.04.07,1.46.07.48,0,.96-.04,1.43-.12.48-.08.89-.15,1.24-.21v-6.31Z"/><path class="h" d="m163.05,46.13c.38.64.7,1.38.96,2.22.25.84.38,1.84.38,2.99-1.27.51-2.47.84-3.58.98-1.12.14-2.28.21-3.49.21-2.07,0-3.87-.33-5.4-.98s-2.79-1.55-3.8-2.7c-1-1.15-1.76-2.51-2.27-4.09-.51-1.58-.76-3.29-.76-5.14s.25-3.5.74-5.06c.49-1.56,1.24-2.93,2.25-4.11,1-1.18,2.25-2.1,3.75-2.77,1.5-.67,3.23-1,5.21-1,.7,0,1.35.02,1.94.05.59.03,1.15.1,1.7.19.54.1,1.08.22,1.62.38.54.16,1.15.37,1.82.62,0,.73-.1,1.55-.29,2.46-.19.91-.49,1.78-.91,2.6-.96-.32-1.79-.53-2.51-.65-.72-.11-1.54-.17-2.46-.17-1.98,0-3.46.64-4.47,1.94-1,1.29-1.5,3.13-1.5,5.52,0,2.58.54,4.46,1.62,5.64,1.08,1.18,2.55,1.77,4.4,1.77.48,0,.92,0,1.31-.02.4-.02.79-.06,1.17-.12.38-.06.77-.16,1.17-.29.4-.13.87-.29,1.41-.48Z"/><path class="h" d="m181.49,35.72c0-.76-.13-1.39-.38-1.86-.26-.48-.61-.85-1.05-1.12-.45-.27-1-.45-1.65-.55-.65-.1-1.38-.14-2.17-.14-1.72,0-3.55.33-5.49,1-.45-.83-.78-1.61-1-2.34-.22-.73-.33-1.61-.33-2.63,1.4-.48,2.8-.83,4.2-1.05,1.4-.22,2.71-.33,3.92-.33,3.31,0,5.9.8,7.76,2.39,1.86,1.59,2.79,4.14,2.79,7.64v14.33c-1.12.35-2.47.69-4.06,1-1.59.32-3.39.48-5.4.48-1.62,0-3.11-.14-4.47-.43-1.35-.29-2.52-.76-3.49-1.43-.97-.67-1.72-1.53-2.25-2.58-.53-1.05-.79-2.34-.79-3.87s.33-2.81.98-3.85c.65-1.03,1.5-1.86,2.53-2.48,1.03-.62,2.19-1.07,3.46-1.34,1.27-.27,2.55-.41,3.82-.41.92,0,1.94.05,3.06.14v-.57Zm0,4.92c-.38-.06-.8-.12-1.24-.17-.45-.05-.84-.07-1.19-.07-1.56,0-2.79.28-3.7.84-.91.56-1.36,1.46-1.36,2.7,0,.83.17,1.47.53,1.91.35.45.77.77,1.27.98.49.21,1.02.33,1.58.38.56.05,1.04.07,1.46.07.48,0,.96-.04,1.43-.12.48-.08.89-.15,1.24-.21v-6.31Z"/><path class="h" d="m198.88,41.21c-1.78-.51-3.18-1.27-4.18-2.27s-1.5-2.51-1.5-4.51c0-2.42.87-4.32,2.6-5.69,1.74-1.37,4.1-2.05,7.1-2.05,1.24,0,2.47.11,3.68.33,1.21.22,2.44.56,3.68,1-.06.83-.22,1.69-.48,2.58-.26.89-.56,1.67-.91,2.34-.76-.32-1.61-.6-2.53-.84-.92-.24-1.9-.36-2.91-.36-1.08,0-1.93.17-2.53.5-.61.33-.91.87-.91,1.6s.22,1.19.65,1.48c.43.29,1.04.56,1.84.81l2.72.81c.89.26,1.7.57,2.41.93.72.37,1.33.82,1.84,1.36.51.54.91,1.21,1.19,2.01.29.8.43,1.77.43,2.91s-.25,2.28-.74,3.3c-.49,1.02-1.21,1.9-2.15,2.65-.94.75-2.08,1.34-3.42,1.77-1.34.43-2.85.65-4.54.65-.76,0-1.47-.02-2.1-.07-.64-.05-1.25-.13-1.84-.24-.59-.11-1.17-.25-1.74-.41s-1.19-.37-1.86-.62c.06-.86.21-1.73.45-2.6.24-.88.55-1.73.93-2.56,1.05.41,2.05.72,2.99.93.94.21,1.92.31,2.94.31.45,0,.93-.04,1.46-.12.53-.08,1.01-.22,1.46-.43.45-.21.82-.48,1.12-.81.3-.33.45-.77.45-1.31,0-.76-.23-1.31-.69-1.65-.46-.33-1.11-.63-1.94-.88l-2.96-.86Z"/><path class="h" d="m228.41,35.72c0-.76-.13-1.39-.38-1.86-.26-.48-.61-.85-1.05-1.12-.45-.27-1-.45-1.65-.55-.65-.1-1.38-.14-2.17-.14-1.72,0-3.55.33-5.49,1-.45-.83-.78-1.61-1-2.34-.22-.73-.33-1.61-.33-2.63,1.4-.48,2.8-.83,4.2-1.05,1.4-.22,2.71-.33,3.92-.33,3.31,0,5.9.8,7.76,2.39,1.86,1.59,2.8,4.14,2.8,7.64v14.33c-1.12.35-2.47.69-4.06,1-1.59.32-3.39.48-5.4.48-1.62,0-3.11-.14-4.47-.43-1.35-.29-2.52-.76-3.49-1.43-.97-.67-1.72-1.53-2.25-2.58-.53-1.05-.79-2.34-.79-3.87s.33-2.81.98-3.85c.65-1.03,1.5-1.86,2.53-2.48,1.03-.62,2.19-1.07,3.46-1.34,1.27-.27,2.55-.41,3.82-.41.92,0,1.94.05,3.06.14v-.57Zm-11.56-18.06c.45-.13.92-.21,1.41-.26.49-.05.96-.07,1.41-.07.48,0,.93.03,1.36.1.43.06.88.16,1.36.29.03.26.09.52.17.79.08.27.21.53.41.76.19.24.45.43.79.57s.79.22,1.36.22,1.03-.07,1.36-.22c.33-.14.6-.33.79-.57s.33-.49.41-.76c.08-.27.14-.53.17-.79.54-.13,1.03-.22,1.48-.29.45-.06.92-.1,1.43-.1.41,0,.85.02,1.31.07.46.05.92.14,1.36.26-.13,1.34-.49,2.43-1.07,3.27-.59.84-1.28,1.51-2.08,2.01-.8.49-1.66.83-2.58,1-.92.18-1.78.26-2.58.26s-1.65-.09-2.56-.26c-.91-.17-1.77-.51-2.58-1-.81-.49-1.51-1.16-2.08-2.01-.57-.84-.92-1.94-1.05-3.27Zm11.56,22.98c-.38-.06-.8-.12-1.24-.17-.45-.05-.84-.07-1.19-.07-1.56,0-2.79.28-3.7.84-.91.56-1.36,1.46-1.36,2.7,0,.83.17,1.47.53,1.91.35.45.77.77,1.27.98.49.21,1.02.33,1.58.38.56.05,1.04.07,1.46.07.48,0,.96-.04,1.43-.12.48-.08.89-.15,1.24-.21v-6.31Z"/></g></g></g></g></g></g></svg>
