<svg xmlns="http://www.w3.org/2000/svg" width="100" height="100" fill="none" viewBox="0 0 100 100">
    <g clip-path="url(#clip0)">
        <path fill="#EE4036"
              d="M47.88 96.53C74.3234 96.53 95.76 75.0934 95.76 48.65C95.76 22.2066 74.3234 0.77002 47.88 0.77002C21.4366 0.77002 0 22.2066 0 48.65C0 75.0934 21.4366 96.53 47.88 96.53Z"/>
        <path fill="#C53733"
              d="M63.66 26.8999L94.4 60.0599C90.37 76.5599 78.2 88.3099 64.57 93.5399L49.71 80.5299L49.67 74.9399L59.91 65.7799L46.34 50.9999L46.89 38.8499L63.52 38.8099L63.66 26.8999Z"/>
        <path fill="#fff"
              d="M59.2599 35.5998C58.4999 35.5398 57.5299 35.5198 56.3499 35.5198C54.7599 35.5198 53.2499 35.7098 51.7999 36.0998C50.3599 36.4898 49.0799 37.0798 47.9799 37.8698C46.8699 38.6698 45.9899 39.6598 45.3499 40.8598C44.6999 42.0598 44.3799 43.4598 44.3799 45.0498C44.3799 46.6798 44.6599 48.0598 45.2099 49.2098C45.7599 50.3598 46.5499 51.2998 47.5699 52.0398C48.5899 52.7798 49.8199 53.3098 51.2799 53.6498C52.7399 53.9798 54.3699 54.1498 56.1899 54.1498C58.1099 54.1498 59.9999 53.9898 61.8399 53.6798C63.6899 53.3698 65.2599 53.0598 66.5499 52.7698V34.9698C66.5499 31.2698 65.5799 28.5898 63.6699 26.8998C61.1699 24.6998 56.0899 24.0998 52.5999 23.8798C52.2699 23.8598 50.2299 23.7898 48.4099 23.7998C46.3299 23.8198 44.9199 23.8698 44.0599 23.9198C39.2999 24.2298 36.4599 24.7798 33.6599 26.6298C30.3499 28.8198 30.0999 36.5098 30.0599 37.6598C30.0299 38.4698 29.2899 51.3598 33.6499 59.9298C37.8799 68.2298 47.4699 77.5998 48.0799 78.2598C48.6999 78.9198 49.7199 80.5398 49.7199 80.5398C49.7199 80.5398 50.7199 78.9398 51.4099 78.2598C54.9899 74.7198 63.9199 64.5398 66.0099 59.5398C63.2399 60.0698 61.5799 60.2998 59.8699 60.5298C59.0699 62.6398 52.3399 70.9898 49.7299 74.1098C46.4899 70.1698 41.2299 63.9598 38.2299 58.0598C34.3199 50.3798 34.9699 37.6298 34.9799 37.4198C35.0999 34.8298 35.1899 32.1398 37.3399 30.2198C39.0199 28.7098 44.7599 28.2198 48.2799 28.2198C53.9599 28.2198 58.1599 28.9298 59.5199 30.1998C60.5399 31.1498 61.1799 32.5698 61.1799 34.7498V35.7998C60.6499 35.7198 60.0099 35.6598 59.2599 35.5998ZM61.1699 49.1598C60.4699 49.3498 59.6599 49.4798 58.7599 49.5798C57.8499 49.6698 56.9799 49.7198 56.1299 49.7198C55.4599 49.7198 54.7599 49.6798 54.0199 49.6098C53.2799 49.5398 52.6099 49.3298 51.9999 48.9998C51.3899 48.6698 50.8799 48.1898 50.4799 47.5598C50.0699 46.9298 49.8699 46.0598 49.8699 44.9498C49.8699 43.2098 50.4699 41.9198 51.6699 41.0698C52.8699 40.2198 54.6199 39.7998 56.9099 39.7998C57.4999 39.7998 58.2199 39.8398 59.0699 39.9098C59.9199 39.9798 60.6199 40.0598 61.1799 40.1298V49.1598H61.1699Z"/>
    </g>
    <defs>
        <clipPath id="clip0">
            <rect width="95.77" height="95.77" fill="#fff" transform="translate(0 0.77002)"/>
        </clipPath>
    </defs>
</svg>
